<?xml version="1.0" encoding="UTF-8"?>
<svg id="Mobile" xmlns="http://www.w3.org/2000/svg" xmlns:xlink="http://www.w3.org/1999/xlink" viewBox="0 0 420 800">
  <defs>
    <clipPath id="clippath">
      <rect width="420" height="800" fill="none"/>
    </clipPath>
  </defs>
  <g id="BKG-2" data-name="BKG">
    <rect width="420" height="800" fill="#f3f6fa"/>
  </g>
  <g id="Geometry-2" data-name="Geometry">
    <g clip-path="url(#clippath)">
      <circle id="large-bubble" cx="230.03" cy="170.1" r="150" fill="#d5e2ee"/>
      <circle id="small-bubble" cx="150" cy="691.16" r="100" fill="#d5e2ee"/>
      <line x1="47.2" y1="509.53" x2="362.71" y2="509.53" fill="none" stroke="#dfb96f" stroke-miterlimit="10" stroke-width="18"/>
    </g>
    <g>
      <rect x="252.43" y="27.68" width="107.78" height="107.78" fill="none" stroke="#b66353" stroke-miterlimit="10" stroke-width="16"/>
      <polyline points="270.03 59.61 311.02 101.19 410.35 27.68" fill="none" stroke="#b66353" stroke-miterlimit="10" stroke-width="20"/>
    </g>
  </g>
  <g id="Text-2" data-name="Text">
    <g>
      <path d="M115.2,291.53l-23.58,71.09h-20.26l-23.39-71.09h20.26l13.28,50.1,13.28-50.1h20.41Z" fill="#233166"/>
      <path d="M175.01,347.07c-2.67,5.32-6.38,9.41-11.13,12.26-4.75,2.85-10.17,4.27-16.26,4.27s-11.66-1.42-16.43-4.27c-4.77-2.85-8.48-6.93-11.13-12.26-2.65-5.32-3.98-11.55-3.98-18.68v-2.59c0-7.13,1.33-13.35,3.98-18.68,2.65-5.32,6.36-9.42,11.11-12.28,4.75-2.86,10.21-4.3,16.36-4.3s11.52,1.43,16.28,4.3c4.77,2.87,8.5,6.96,11.18,12.28s4.03,11.55,4.03,18.68v2.59c0,7.13-1.33,13.35-4,18.68ZM157.07,310.65c-2.23-3.47-5.41-5.2-9.55-5.2-8.56,0-12.84,6.75-12.84,20.26v2.69c0,6.58,1.08,11.61,3.25,15.11,2.16,3.5,5.4,5.25,9.69,5.25s7.26-1.77,9.47-5.32c2.21-3.55,3.32-8.56,3.32-15.04v-2.69c0-6.58-1.12-11.6-3.34-15.06Z" fill="#233166"/>
      <path d="M241.96,306.28h-21.19v56.35h-18.26v-56.35h-20.65v-14.75h60.11v14.75Z" fill="#233166"/>
      <path d="M266.96,306.28v12.84h26.42v14.16h-26.42v14.65h31.3v14.7h-49.51v-71.09h49.71v14.75h-31.49Z" fill="#233166"/>
      <path d="M362.71,361.84v.78h-19.53l-11.96-24.02h-8.45v24.02h-18.21v-71.09h28.66c5.53,0,10.33.82,14.4,2.47,4.07,1.64,7.22,4.08,9.45,7.3,2.23,3.22,3.34,7.13,3.34,11.72,0,5.47-1.03,9.77-3.1,12.92-2.07,3.14-5.1,5.71-9.11,7.69l14.5,28.22ZM322.77,323.81h10.45c2.96,0,5.2-.74,6.71-2.22,1.51-1.48,2.27-3.65,2.27-6.52s-.78-4.96-2.34-6.49c-1.56-1.53-3.78-2.29-6.64-2.29h-10.45v17.53Z" fill="#233166"/>
    </g>
    <g>
      <path d="M105.11,448.28c-2.64,1.45-5.88,2.66-9.74,3.64s-8.16,1.46-12.92,1.46c-6.41,0-11.98-1.34-16.7-4.03-4.72-2.69-8.37-6.63-10.94-11.84-2.57-5.21-3.86-11.47-3.86-18.8v-3.66c0-7.26,1.31-13.51,3.93-18.75,2.62-5.24,6.24-9.22,10.86-11.94,4.62-2.72,9.88-4.08,15.77-4.08,9.6,0,16.76,2.2,21.46,6.59,4.7,4.39,7.41,10.5,8.13,18.31h-17.43c-.49-3.55-1.6-6.13-3.34-7.76-1.74-1.63-4.45-2.44-8.13-2.44-3.91,0-7.01,1.66-9.3,4.98s-3.44,8.32-3.44,14.99v3.76c0,6.84,1.13,11.87,3.39,15.11,2.26,3.24,5.93,4.86,11.01,4.86,2.18,0,4.04-.23,5.59-.71,1.55-.47,2.71-1.03,3.49-1.69v-9.67h-11.28v-12.89h29.54v30.08c-1.43,1.53-3.47,3.02-6.1,4.47Z" fill="#233166"/>
      <path d="M182.99,427.26c0,5.54-1.14,10.26-3.42,14.19-2.28,3.92-5.53,6.89-9.77,8.91-4.23,2.02-9.23,3.03-14.99,3.03s-10.69-1.02-14.97-3.05c-4.28-2.04-7.6-5.01-9.96-8.94-2.36-3.92-3.54-8.63-3.54-14.14v-45.95h18.31v45.95c0,4,.85,6.91,2.54,8.72,1.69,1.81,4.23,2.71,7.62,2.71s5.89-.9,7.52-2.71c1.63-1.81,2.44-4.71,2.44-8.72v-45.95h18.21v45.95Z" fill="#233166"/>
      <path d="M200.42,452.4v-71.09h18.12v71.09h-18.12Z" fill="#233166"/>
      <path d="M276.21,385.71c5.03,2.93,8.97,7,11.82,12.21,2.85,5.21,4.27,11.08,4.27,17.63v2.69c0,6.54-1.42,12.41-4.25,17.6-2.83,5.19-6.74,9.25-11.72,12.18s-10.58,4.39-16.8,4.39h-23.73v-71.09h23.29c6.38,0,12.08,1.46,17.11,4.39ZM273.65,415.44c0-6.38-1.24-11.21-3.71-14.48-2.47-3.27-6.09-4.91-10.84-4.91h-5.08v41.65h5.52c4.52,0,8.01-1.63,10.45-4.88,2.44-3.25,3.66-8.12,3.66-14.6v-2.78Z" fill="#233166"/>
      <path d="M324.57,396.06v12.84h26.42v14.16h-26.42v14.65h31.3v14.7h-49.51v-71.09h49.71v14.75h-31.49Z" fill="#233166"/>
    </g>
    <g>
      <path d="M52.17,273.24v-7.49l16.52-17.4c2.27-2.51,3.9-4.65,4.89-6.43s1.48-3.39,1.48-4.82c0-2.23-.53-3.94-1.58-5.13s-2.58-1.79-4.57-1.79c-1.38,0-2.59.35-3.62,1.05-1.03.7-1.82,1.68-2.36,2.94-.54,1.25-.81,2.67-.81,4.24h-11c0-3.12.75-5.98,2.25-8.6,1.5-2.61,3.62-4.68,6.36-6.21s5.88-2.29,9.42-2.29,6.71.58,9.25,1.74,4.44,2.84,5.73,5.04c1.29,2.2,1.93,4.85,1.93,7.95,0,2.27-.46,4.46-1.37,6.56s-2.2,4.19-3.85,6.28-3.83,4.52-6.52,7.31l-7.91,8.19h21.13v8.86h-35.37Z" fill="#233166"/>
      <path d="M126.47,264.38c-1.44,3.23-3.47,5.64-6.08,7.21-2.61,1.57-5.69,2.36-9.23,2.36s-6.66-.79-9.3-2.36-4.68-3.97-6.13-7.21c-1.45-3.23-2.18-7.28-2.18-12.13v-9.21c0-4.88.73-8.93,2.18-12.16,1.45-3.23,3.49-5.63,6.1-7.19,2.61-1.56,5.7-2.34,9.26-2.34s6.62.78,9.25,2.34c2.62,1.56,4.66,3.96,6.12,7.19,1.45,3.23,2.18,7.29,2.18,12.16v9.21c0,4.85-.72,8.89-2.16,12.13ZM116.03,232.82c-1.11-1.75-2.76-2.62-4.94-2.62s-3.82.87-4.92,2.62c-1.1,1.75-1.65,4.65-1.65,8.7v12.13c0,4.1.56,7.03,1.67,8.79,1.11,1.76,2.77,2.64,4.97,2.64s3.78-.88,4.89-2.64c1.1-1.76,1.65-4.69,1.65-8.79v-12.13c0-4.05-.56-6.96-1.67-8.7Z" fill="#233166"/>
      <path d="M135.21,273.24v-7.49l16.52-17.4c2.27-2.51,3.9-4.65,4.89-6.43s1.48-3.39,1.48-4.82c0-2.23-.53-3.94-1.58-5.13s-2.58-1.79-4.57-1.79c-1.38,0-2.59.35-3.62,1.05-1.03.7-1.82,1.68-2.36,2.94-.54,1.25-.81,2.67-.81,4.24h-11c0-3.12.75-5.98,2.25-8.6,1.5-2.61,3.62-4.68,6.36-6.21s5.88-2.29,9.42-2.29,6.71.58,9.25,1.74,4.44,2.84,5.73,5.04c1.29,2.2,1.93,4.85,1.93,7.95,0,2.27-.46,4.46-1.37,6.56s-2.2,4.19-3.85,6.28-3.83,4.52-6.52,7.31l-7.91,8.19h21.13v8.86h-35.37Z" fill="#233166"/>
      <path d="M205.98,241.08c2.18,1.54,3.83,3.63,4.96,6.28s1.69,5.64,1.69,8.96-.74,6.3-2.21,8.98-3.55,4.79-6.21,6.33c-2.66,1.54-5.7,2.3-9.12,2.3-3.61,0-6.81-.83-9.6-2.5-2.79-1.66-4.96-4.05-6.5-7.15s-2.32-6.73-2.32-10.88v-4.22c0-5.62,1.12-10.54,3.38-14.73s5.37-7.42,9.37-9.69c4-2.26,8.57-3.39,13.73-3.39h1.65v9h-.63c-4.52,0-8.21,1.08-11.07,3.23-2.86,2.16-4.61,5.26-5.24,9.32,1.27-1.29,2.77-2.3,4.5-3.04,1.73-.74,3.64-1.11,5.73-1.11,3.09,0,5.73.77,7.91,2.3ZM198.37,263.95c1.04-.75,1.85-1.79,2.43-3.13.57-1.34.86-2.84.86-4.5,0-1.76-.29-3.3-.88-4.62-.59-1.32-1.42-2.34-2.5-3.06-1.08-.71-2.33-1.07-3.76-1.07-1.62,0-3.02.39-4.22,1.16s-2.09,1.77-2.67,2.99v3.3c0,3.33.63,5.84,1.88,7.52,1.25,1.69,3.02,2.53,5.29,2.53,1.34,0,2.53-.38,3.57-1.12Z" fill="#233166"/>
    </g>
    <g>
      <path d="M66.54,577.57v2.44h-11.19v-17.06h11.12v2.45h-8.09v4.63h6.97v2.39h-6.97v5.16h8.16Z"/>
      <path d="M78.49,567.33l-4.38,12.68h-2.57l-4.41-12.68h3.02l2.68,8.99,2.62-8.99h3.02Z"/>
      <path d="M90.96,574.58h-8.26c.05.65.22,1.22.5,1.72s.66.89,1.14,1.17,1.04.42,1.68.42c1.31,0,2.37-.52,3.16-1.55l1.56,1.51c-.46.68-1.1,1.25-1.92,1.7s-1.81.68-2.98.68c-1.23,0-2.31-.27-3.23-.8s-1.63-1.27-2.12-2.2-.74-1.97-.74-3.13v-.48c0-1.3.25-2.45.75-3.44s1.19-1.75,2.06-2.29,1.86-.81,2.95-.81c1.2,0,2.2.26,3.01.79s1.42,1.26,1.82,2.2.6,2.03.6,3.28v1.23ZM88.08,572.25c-.04-.82-.26-1.49-.67-2.02s-1.04-.79-1.9-.79c-.77,0-1.38.27-1.85.8s-.77,1.28-.9,2.24h5.32v-.22Z"/>
      <path d="M99.39,567.14c.21.03.36.07.46.11l-.02,2.75c-.39-.06-.78-.09-1.16-.09-1.3,0-2.18.49-2.62,1.46v8.64h-2.92v-12.68h2.78l.08,1.43c.32-.53.72-.94,1.2-1.23s1.03-.43,1.65-.43c.16,0,.35.02.56.05Z"/>
      <path d="M111.75,567.33l-5.05,14.6c-.32.88-.78,1.63-1.38,2.26s-1.45.94-2.56.94c-.38,0-.85-.07-1.39-.21v-2.24l.54.02c.7,0,1.22-.12,1.59-.37s.65-.68.86-1.29l.4-1.08-4.45-12.63h3.15l2.64,8.51,2.55-8.51h3.11Z"/>
      <path d="M119.28,577.71v2.25c-.56.19-1.2.28-1.9.28-1.03,0-1.84-.29-2.44-.86s-.89-1.48-.89-2.73v-7.17h-2.06v-2.16h2.06v-3.09h2.92v3.09h2.23v2.16h-2.23v6.97c0,.53.11.89.33,1.08s.55.29.98.29c.31,0,.64-.04,1-.12Z"/>
      <path d="M131.86,571.87v8.14h-2.92v-8.17c0-.85-.18-1.46-.54-1.82s-.92-.54-1.67-.54c-.56,0-1.06.13-1.48.39s-.77.62-1.03,1.08v9.07h-2.92v-18h2.92v6.7c.44-.52.96-.91,1.55-1.2s1.25-.42,1.95-.42c2.76,0,4.14,1.59,4.14,4.77Z"/>
      <path d="M137.55,562.92c.3.29.45.67.45,1.12s-.15.81-.45,1.1-.7.43-1.21.43-.91-.14-1.21-.43-.45-.65-.45-1.11.15-.83.45-1.12.7-.44,1.21-.44.91.15,1.21.44ZM134.88,580.01v-12.68h2.92v12.68h-2.92Z"/>
      <path d="M150.32,568.22c.7.75,1.05,1.95,1.05,3.62v8.18h-2.92v-8.2c0-.84-.18-1.44-.54-1.8s-.92-.53-1.67-.53c-.55,0-1.04.13-1.46.4s-.77.64-1.03,1.11v9.02h-2.92v-12.68h2.74l.09,1.46c.45-.55.99-.97,1.62-1.26s1.31-.44,2.06-.44c1.29,0,2.28.37,2.98,1.12Z"/>
      <path d="M164.96,567.33v12.32c0,1.12-.24,2.09-.73,2.89s-1.16,1.42-2.04,1.83-1.89.63-3.04.63c-.52,0-1.07-.07-1.66-.22s-1.17-.37-1.72-.69-1-.71-1.35-1.18l1.36-1.75c.45.52.94.9,1.49,1.15s1.12.38,1.72.38c.95,0,1.7-.26,2.24-.78s.81-1.26.81-2.22v-.84c-.82.92-1.91,1.38-3.26,1.38-1.02,0-1.91-.28-2.67-.83s-1.36-1.32-1.78-2.3-.63-2.08-.63-3.3v-.25c0-1.28.21-2.41.62-3.39s1.01-1.73,1.78-2.27,1.67-.81,2.7-.81c1.45,0,2.58.5,3.39,1.49l.12-1.25h2.65ZM162.04,576.41v-5.52c-.52-.95-1.36-1.42-2.5-1.42-.65,0-1.19.18-1.63.54s-.76.85-.97,1.46-.32,1.31-.32,2.09v.25c0,1.2.24,2.17.73,2.92s1.21,1.12,2.17,1.12c1.16,0,2-.48,2.52-1.44Z"/>
      <path d="M183.95,567.33l-5.05,14.6c-.32.88-.78,1.63-1.38,2.26s-1.45.94-2.56.94c-.38,0-.85-.07-1.39-.21v-2.24l.54.02c.7,0,1.22-.12,1.59-.37s.65-.68.86-1.29l.4-1.08-4.45-12.63h3.15l2.64,8.51,2.55-8.51h3.11Z"/>
      <path d="M185.72,570.24c.47-.98,1.15-1.74,2.04-2.3s1.94-.84,3.14-.84,2.28.28,3.17.84,1.58,1.33,2.05,2.3.71,2.08.71,3.32v.25c0,1.23-.24,2.34-.71,3.32s-1.15,1.74-2.04,2.3-1.94.83-3.15.83-2.26-.28-3.16-.83-1.58-1.32-2.05-2.3-.71-2.08-.71-3.32v-.25c0-1.23.24-2.34.71-3.32ZM188.68,576.75c.5.77,1.25,1.15,2.25,1.15.66,0,1.22-.18,1.67-.54s.78-.85,1-1.47.32-1.31.32-2.09v-.25c0-.77-.11-1.46-.32-2.08s-.55-1.12-1-1.48-1.02-.55-1.69-.55-1.22.18-1.66.55-.78.86-.99,1.48-.32,1.31-.32,2.08v.25c0,1.2.25,2.19.75,2.95Z"/>
      <path d="M209.69,567.33v12.68h-2.75l-.07-1.25c-.83.99-2.01,1.49-3.55,1.49-1.31,0-2.34-.38-3.08-1.15s-1.11-1.96-1.11-3.57v-8.19h2.92v8.21c0,.83.18,1.42.54,1.78s.84.53,1.44.53c1.35,0,2.27-.48,2.74-1.44v-9.08h2.93Z"/>
      <path d="M227.98,568.22c.7.75,1.05,1.95,1.05,3.62v8.18h-2.92v-8.2c0-.84-.18-1.44-.54-1.8s-.92-.53-1.67-.53c-.55,0-1.04.13-1.46.4s-.77.64-1.03,1.11v9.02h-2.92v-12.68h2.74l.09,1.46c.45-.55.99-.97,1.62-1.26s1.31-.44,2.06-.44c1.29,0,2.28.37,2.98,1.12Z"/>
      <path d="M242.6,574.58h-8.26c.05.65.22,1.22.5,1.72s.66.89,1.14,1.17,1.04.42,1.68.42c1.31,0,2.37-.52,3.16-1.55l1.56,1.51c-.46.68-1.1,1.25-1.92,1.7s-1.81.68-2.98.68c-1.23,0-2.31-.27-3.23-.8s-1.63-1.27-2.12-2.2-.74-1.97-.74-3.13v-.48c0-1.3.25-2.45.75-3.44s1.19-1.75,2.06-2.29,1.86-.81,2.95-.81c1.2,0,2.2.26,3.01.79s1.42,1.26,1.82,2.2.6,2.03.6,3.28v1.23ZM239.72,572.25c-.04-.82-.26-1.49-.67-2.02s-1.04-.79-1.9-.79c-.77,0-1.38.27-1.85.8s-.77,1.28-.9,2.24h5.32v-.22Z"/>
      <path d="M255.49,574.58h-8.26c.05.65.22,1.22.5,1.72s.66.89,1.14,1.17,1.04.42,1.68.42c1.31,0,2.37-.52,3.16-1.55l1.56,1.51c-.46.68-1.1,1.25-1.92,1.7s-1.81.68-2.98.68c-1.23,0-2.31-.27-3.23-.8s-1.63-1.27-2.12-2.2-.74-1.97-.74-3.13v-.48c0-1.3.25-2.45.75-3.44s1.19-1.75,2.06-2.29,1.86-.81,2.95-.81c1.2,0,2.2.26,3.01.79s1.42,1.26,1.82,2.2.6,2.03.6,3.28v1.23ZM252.61,572.25c-.04-.82-.26-1.49-.67-2.02s-1.04-.79-1.9-.79c-.77,0-1.38.27-1.85.8s-.77,1.28-.9,2.24h5.32v-.22Z"/>
      <path d="M268.28,562.01v18h-2.64l-.14-1.32c-.84,1.04-1.97,1.56-3.39,1.56-1,0-1.88-.28-2.63-.83s-1.33-1.32-1.74-2.3-.61-2.08-.61-3.3v-.25c0-1.28.2-2.41.6-3.39s.98-1.73,1.73-2.27,1.64-.81,2.67-.81c1.33,0,2.4.46,3.22,1.39v-6.48h2.92ZM265.36,576.33v-5.37c-.51-.99-1.34-1.49-2.48-1.49-.95,0-1.66.38-2.13,1.14s-.7,1.74-.7,2.95v.25c0,1.2.23,2.18.69,2.92s1.16,1.12,2.12,1.12c1.16,0,1.99-.51,2.51-1.52Z"/>
      <path d="M283.13,577.71v2.25c-.56.19-1.2.28-1.9.28-1.03,0-1.84-.29-2.44-.86s-.89-1.48-.89-2.73v-7.17h-2.06v-2.16h2.06v-3.09h2.92v3.09h2.23v2.16h-2.23v6.97c0,.53.11.89.33,1.08s.55.29.98.29c.31,0,.64-.04,1-.12Z"/>
      <path d="M285.07,570.24c.47-.98,1.15-1.74,2.04-2.3s1.94-.84,3.14-.84,2.28.28,3.17.84,1.58,1.33,2.05,2.3.71,2.08.71,3.32v.25c0,1.23-.24,2.34-.71,3.32s-1.15,1.74-2.04,2.3-1.94.83-3.15.83-2.26-.28-3.16-.83-1.58-1.32-2.05-2.3-.71-2.08-.71-3.32v-.25c0-1.23.24-2.34.71-3.32ZM288.03,576.75c.5.77,1.25,1.15,2.25,1.15.66,0,1.22-.18,1.67-.54s.78-.85,1-1.47.32-1.31.32-2.09v-.25c0-.77-.11-1.46-.32-2.08s-.55-1.12-1-1.48-1.02-.55-1.69-.55-1.22.18-1.66.55-.78.86-.99,1.48-.32,1.31-.32,2.08v.25c0,1.2.25,2.19.75,2.95Z"/>
      <path d="M308.72,574.6l-1.28,1.3v4.11h-2.91v-18h2.91v10.32l.87-1.08,3.47-3.93h3.52l-4.7,5.27,5.19,7.41h-3.38l-3.69-5.41Z"/>
      <path d="M326.55,568.22c.7.75,1.05,1.95,1.05,3.62v8.18h-2.92v-8.2c0-.84-.18-1.44-.54-1.8s-.92-.53-1.67-.53c-.55,0-1.04.13-1.46.4s-.77.64-1.03,1.11v9.02h-2.92v-12.68h2.74l.09,1.46c.45-.55.99-.97,1.62-1.26s1.31-.44,2.06-.44c1.29,0,2.28.37,2.98,1.12Z"/>
      <path d="M330.62,570.24c.47-.98,1.15-1.74,2.04-2.3s1.94-.84,3.14-.84,2.28.28,3.17.84,1.58,1.33,2.05,2.3.71,2.08.71,3.32v.25c0,1.23-.24,2.34-.71,3.32s-1.15,1.74-2.04,2.3-1.94.83-3.15.83-2.26-.28-3.16-.83-1.58-1.32-2.05-2.3-.71-2.08-.71-3.32v-.25c0-1.23.24-2.34.71-3.32ZM333.58,576.75c.5.77,1.25,1.15,2.25,1.15.66,0,1.22-.18,1.67-.54s.78-.85,1-1.47.32-1.31.32-2.09v-.25c0-.77-.11-1.46-.32-2.08s-.55-1.12-1-1.48-1.02-.55-1.69-.55-1.22.18-1.66.55-.78.86-.99,1.48-.32,1.31-.32,2.08v.25c0,1.2.25,2.19.75,2.95Z"/>
      <path d="M360.03,567.33l-3.43,12.68h-2.4l-2.68-8.6-2.64,8.6h-2.4l-3.43-12.68h2.84l2,8.57,2.57-8.57h2.18l2.59,8.67,1.98-8.67h2.84Z"/>
      <path d="M64,596.71c.75.54,1.31,1.3,1.68,2.27s.56,2.09.56,3.38v.25c0,1.27-.19,2.38-.57,3.35s-.94,1.73-1.68,2.27-1.64.82-2.68.82c-1.47,0-2.62-.54-3.46-1.61l-.14,1.37h-2.64v-18h2.92v6.53c.81-.96,1.91-1.44,3.29-1.44,1.06,0,1.97.27,2.71.81ZM63.33,602.35c0-1.23-.21-2.21-.64-2.96s-1.14-1.12-2.14-1.12c-1.21,0-2.06.53-2.55,1.59v5.18c.5,1.08,1.36,1.62,2.58,1.62.98,0,1.68-.37,2.11-1.1s.64-1.72.64-2.97v-.25Z"/>
      <path d="M79.31,603.38h-8.26c.05.65.22,1.22.5,1.72s.66.89,1.14,1.17,1.04.42,1.68.42c1.31,0,2.37-.52,3.16-1.55l1.56,1.51c-.46.68-1.1,1.25-1.92,1.7s-1.81.68-2.98.68c-1.23,0-2.31-.27-3.23-.8s-1.63-1.27-2.12-2.2-.74-1.97-.74-3.13v-.48c0-1.3.25-2.45.75-3.44s1.19-1.75,2.06-2.29,1.86-.81,2.95-.81c1.2,0,2.2.26,3.01.79s1.42,1.26,1.82,2.2.6,2.03.6,3.28v1.23ZM76.43,601.05c-.04-.82-.26-1.49-.67-2.02s-1.04-.79-1.9-.79c-.77,0-1.38.27-1.85.8s-.77,1.28-.9,2.24h5.32v-.22Z"/>
      <path d="M85.92,593.47c-.35.34-.53.83-.53,1.46v1.2h2.57v2.16h-2.57v10.52h-2.92v-10.52h-1.93v-2.16h1.93v-1.2c0-.93.18-1.72.54-2.38s.88-1.15,1.55-1.49,1.47-.5,2.39-.5c.52,0,1.05.07,1.62.21l-.07,2.29c-.3-.07-.67-.11-1.09-.11-.64,0-1.14.17-1.49.52Z"/>
      <path d="M90.18,599.04c.47-.98,1.15-1.74,2.04-2.3s1.94-.84,3.14-.84,2.28.28,3.17.84,1.58,1.33,2.05,2.3.71,2.08.71,3.32v.25c0,1.23-.24,2.34-.71,3.32s-1.15,1.74-2.04,2.3-1.94.83-3.15.83-2.26-.28-3.16-.83-1.58-1.32-2.05-2.3-.71-2.08-.71-3.32v-.25c0-1.23.24-2.34.71-3.32ZM93.14,605.55c.5.77,1.25,1.15,2.25,1.15.66,0,1.22-.18,1.67-.54s.78-.85,1-1.47.32-1.31.32-2.09v-.25c0-.77-.11-1.46-.32-2.08s-.55-1.12-1-1.48-1.02-.55-1.69-.55-1.22.18-1.66.55-.78.86-.99,1.48-.32,1.31-.32,2.08v.25c0,1.2.25,2.19.75,2.95Z"/>
      <path d="M109.91,595.94c.21.03.36.07.46.11l-.02,2.75c-.39-.06-.78-.09-1.16-.09-1.3,0-2.18.49-2.62,1.46v8.64h-2.92v-12.68h2.78l.08,1.43c.32-.53.72-.94,1.2-1.23s1.03-.43,1.65-.43c.16,0,.35.02.56.05Z"/>
      <path d="M122.86,603.38h-8.26c.05.65.22,1.22.5,1.72s.66.89,1.14,1.17,1.04.42,1.68.42c1.31,0,2.37-.52,3.16-1.55l1.56,1.51c-.46.68-1.1,1.25-1.92,1.7s-1.81.68-2.98.68c-1.23,0-2.31-.27-3.23-.8s-1.63-1.27-2.12-2.2-.74-1.97-.74-3.13v-.48c0-1.3.25-2.45.75-3.44s1.19-1.75,2.06-2.29,1.86-.81,2.95-.81c1.2,0,2.2.26,3.01.79s1.42,1.26,1.82,2.2.6,2.03.6,3.28v1.23ZM119.97,601.05c-.04-.82-.26-1.49-.67-2.02s-1.04-.79-1.9-.79c-.77,0-1.38.27-1.85.8s-.77,1.28-.9,2.24h5.32v-.22Z"/>
      <path d="M141.14,596.13l-5.05,14.6c-.32.88-.78,1.63-1.38,2.26s-1.45.94-2.56.94c-.38,0-.85-.07-1.39-.21v-2.24l.54.02c.7,0,1.22-.12,1.59-.37s.65-.68.86-1.29l.4-1.08-4.45-12.63h3.15l2.64,8.51,2.55-8.51h3.11Z"/>
      <path d="M142.91,599.04c.47-.98,1.15-1.74,2.04-2.3s1.94-.84,3.14-.84,2.28.28,3.17.84,1.58,1.33,2.05,2.3.71,2.08.71,3.32v.25c0,1.23-.24,2.34-.71,3.32s-1.15,1.74-2.04,2.3-1.94.83-3.15.83-2.26-.28-3.16-.83-1.58-1.32-2.05-2.3-.71-2.08-.71-3.32v-.25c0-1.23.24-2.34.71-3.32ZM145.87,605.55c.5.77,1.25,1.15,2.25,1.15.66,0,1.22-.18,1.67-.54s.78-.85,1-1.47.32-1.31.32-2.09v-.25c0-.77-.11-1.46-.32-2.08s-.55-1.12-1-1.48-1.02-.55-1.69-.55-1.22.18-1.66.55-.78.86-.99,1.48-.32,1.31-.32,2.08v.25c0,1.2.25,2.19.75,2.95Z"/>
      <path d="M166.88,596.13v12.68h-2.75l-.07-1.25c-.83.99-2.01,1.49-3.55,1.49-1.31,0-2.34-.38-3.08-1.15s-1.11-1.96-1.11-3.57v-8.19h2.92v8.21c0,.83.18,1.42.54,1.78s.84.53,1.44.53c1.35,0,2.27-.48,2.74-1.44v-9.08h2.93Z"/>
      <path d="M185.88,596.13l-4.38,12.68h-2.57l-4.41-12.68h3.02l2.68,8.99,2.62-8.99h3.02Z"/>
      <path d="M187.62,599.04c.47-.98,1.15-1.74,2.04-2.3s1.94-.84,3.14-.84,2.28.28,3.17.84,1.58,1.33,2.05,2.3.71,2.08.71,3.32v.25c0,1.23-.24,2.34-.71,3.32s-1.15,1.74-2.04,2.3-1.94.83-3.15.83-2.26-.28-3.16-.83-1.58-1.32-2.05-2.3-.71-2.08-.71-3.32v-.25c0-1.23.24-2.34.71-3.32ZM190.58,605.55c.5.77,1.25,1.15,2.25,1.15.66,0,1.22-.18,1.67-.54s.78-.85,1-1.47.32-1.31.32-2.09v-.25c0-.77-.11-1.46-.32-2.08s-.55-1.12-1-1.48-1.02-.55-1.69-.55-1.22.18-1.66.55-.78.86-.99,1.48-.32,1.31-.32,2.08v.25c0,1.2.25,2.19.75,2.95Z"/>
      <path d="M206.99,606.51v2.25c-.56.19-1.2.28-1.9.28-1.03,0-1.84-.29-2.44-.86s-.89-1.48-.89-2.73v-7.17h-2.06v-2.16h2.06v-3.09h2.92v3.09h2.23v2.16h-2.23v6.97c0,.53.11.89.33,1.08s.55.29.98.29c.31,0,.64-.04,1-.12Z"/>
      <path d="M219.77,603.38h-8.26c.05.65.22,1.22.5,1.72s.66.89,1.14,1.17,1.04.42,1.68.42c1.31,0,2.37-.52,3.16-1.55l1.56,1.51c-.46.68-1.1,1.25-1.92,1.7s-1.81.68-2.98.68c-1.23,0-2.31-.27-3.23-.8s-1.63-1.27-2.12-2.2-.74-1.97-.74-3.13v-.48c0-1.3.25-2.45.75-3.44s1.19-1.75,2.06-2.29,1.86-.81,2.95-.81c1.2,0,2.2.26,3.01.79s1.42,1.26,1.82,2.2.6,2.03.6,3.28v1.23ZM216.89,601.05c-.04-.82-.26-1.49-.67-2.02s-1.04-.79-1.9-.79c-.77,0-1.38.27-1.85.8s-.77,1.28-.9,2.24h5.32v-.22Z"/>
    </g>
  </g>
</svg>