<?xml version="1.0" encoding="UTF-8"?>
<svg id="PC" xmlns="http://www.w3.org/2000/svg" xmlns:xlink="http://www.w3.org/1999/xlink" viewBox="0 0 1920 720">
  <defs>
    <clipPath id="clippath">
      <rect width="1920" height="720" fill="none"/>
    </clipPath>
  </defs>
  <g id="BKG">
    <rect width="1920" height="720" fill="#f3f6fa"/>
  </g>
  <g id="Geometry">
    <g clip-path="url(#clippath)">
      <circle id="large-bubble" cx="602.69" cy="273.54" r="250" fill="#d5e2ee"/>
      <circle id="small-bubble" cx="1236.37" cy="556.39" r="150" fill="#d5e2ee"/>
      <line x1="1051.35" y1="222.28" x2="1051.35" y2="720" fill="none" stroke="#dfb96f" stroke-miterlimit="10" stroke-width="40"/>
    </g>
    <g id="Check">
      <g>
        <rect x="1517.5" y="52.96" width="250" height="250" fill="none" stroke="#b66353" stroke-miterlimit="10" stroke-width="35"/>
        <polyline points="1558.33 127.02 1653.41 223.46 1883.81 52.96" fill="none" stroke="#b66353" stroke-miterlimit="10" stroke-width="40"/>
      </g>
    </g>
  </g>
  <g id="Text">
    <g>
      <path d="M187.14,233.02l-64.86,195.51h-55.73L2.24,233.02h55.73l36.52,137.77,36.52-137.77h56.13Z" fill="#233166"/>
      <path d="M351.63,385.76c-7.34,14.64-17.55,25.87-30.62,33.7-13.07,7.83-27.98,11.75-44.71,11.75s-32.07-3.92-45.18-11.75c-13.11-7.83-23.32-19.07-30.62-33.7-7.3-14.64-10.94-31.76-10.94-51.36v-7.12c0-19.6,3.65-36.72,10.94-51.36,7.3-14.64,17.48-25.89,30.55-33.77,13.07-7.88,28.06-11.82,44.98-11.82s31.67,3.94,44.78,11.82c13.11,7.88,23.36,19.13,30.75,33.77,7.38,14.64,11.08,31.76,11.08,51.36v7.12c0,19.6-3.67,36.73-11.01,51.36ZM302.28,285.59c-6.13-9.53-14.88-14.3-26.25-14.3-23.54,0-35.31,18.58-35.31,55.73v7.39c0,18.08,2.98,31.94,8.93,41.56,5.95,9.62,14.84,14.43,26.65,14.43s19.96-4.88,26.05-14.64c6.09-9.76,9.13-23.54,9.13-41.36v-7.39c0-18.08-3.07-31.89-9.2-41.42Z" fill="#233166"/>
      <path d="M535.73,273.57h-58.28v154.96h-50.22v-154.96h-56.8v-40.55h165.3v40.55Z" fill="#233166"/>
      <path d="M604.48,273.57v35.31h72.64v38.94h-72.64v40.28h86.07v40.42h-136.16v-195.51h136.69v40.55h-86.61Z" fill="#233166"/>
      <path d="M867.79,426.38v2.15h-53.71l-32.9-66.06h-23.23v66.06h-50.09v-195.51h78.82c15.22,0,28.42,2.26,39.61,6.78,11.19,4.52,19.85,11.21,25.98,20.07,6.13,8.86,9.2,19.6,9.2,32.23,0,15.04-2.84,26.88-8.53,35.52-5.69,8.64-14.03,15.69-25.04,21.15l39.88,77.61ZM757.96,321.77h28.74c8.14,0,14.3-2.04,18.46-6.11,4.16-4.07,6.24-10.05,6.24-17.93s-2.15-13.65-6.45-17.86c-4.3-4.21-10.39-6.31-18.26-6.31h-28.74v48.21Z" fill="#233166"/>
    </g>
    <g>
      <path d="M162.57,684.9c-7.25,3.98-16.18,7.32-26.79,10-10.61,2.69-22.45,4.03-35.52,4.03-17.64,0-32.94-3.69-45.92-11.08-12.98-7.38-23.01-18.24-30.08-32.56-7.07-14.32-10.61-31.55-10.61-51.7v-10.07c0-19.96,3.6-37.15,10.81-51.56,7.21-14.41,17.16-25.36,29.88-32.83,12.71-7.47,27.17-11.21,43.37-11.21,26.41,0,46.08,6.04,59.02,18.13,12.93,12.08,20.39,28.87,22.36,50.35h-47.94c-1.34-9.76-4.41-16.87-9.2-21.35-4.79-4.47-12.24-6.71-22.36-6.71-10.74,0-19.27,4.57-25.58,13.7-6.31,9.13-9.47,22.87-9.47,41.22v10.34c0,18.8,3.11,32.65,9.33,41.56,6.22,8.91,16.31,13.36,30.28,13.36,6,0,11.12-.65,15.37-1.95,4.25-1.3,7.45-2.84,9.6-4.63v-26.59h-31.02v-35.45h81.24v82.71c-3.94,4.21-9.53,8.3-16.78,12.29Z" fill="#233166"/>
      <path d="M376.73,627.1c0,15.22-3.13,28.22-9.4,39.01-6.27,10.79-15.22,18.96-26.86,24.51-11.64,5.55-25.38,8.33-41.22,8.33s-29.39-2.8-41.16-8.39c-11.77-5.59-20.9-13.78-27.39-24.57-6.49-10.79-9.73-23.74-9.73-38.87v-126.36h50.35v126.36c0,11.01,2.33,19,6.98,23.97,4.65,4.97,11.64,7.45,20.95,7.45s16.2-2.48,20.68-7.45c4.48-4.97,6.71-12.96,6.71-23.97v-126.36h50.09v126.36Z" fill="#233166"/>
      <path d="M424.65,696.25v-195.51h49.82v195.51h-49.82Z" fill="#233166"/>
      <path d="M633.1,512.83c13.83,8.06,24.66,19.25,32.5,33.57,7.83,14.32,11.75,30.48,11.75,48.47v7.38c0,17.99-3.89,34.13-11.68,48.41-7.79,14.28-18.53,25.45-32.23,33.5s-29.09,12.08-46.19,12.08h-65.26v-195.51h64.05c17.54,0,33.23,4.03,47.06,12.08ZM626.05,594.6c0-17.54-3.4-30.82-10.21-39.81-6.8-9-16.74-13.5-29.81-13.5h-13.96v114.54h15.17c12.44,0,22.02-4.47,28.74-13.43,6.71-8.95,10.07-22.33,10.07-40.15v-7.65Z" fill="#233166"/>
      <path d="M766.08,541.29v35.32h72.64v38.94h-72.64v40.28h86.07v40.42h-136.16v-195.51h136.69v40.55h-86.61Z" fill="#233166"/>
    </g>
    <g>
      <path d="M12.59,173.54v-20.8l45.9-48.34c6.31-6.97,10.84-12.92,13.57-17.87,2.73-4.95,4.1-9.41,4.1-13.38,0-6.18-1.46-10.94-4.39-14.26s-7.16-4.98-12.7-4.98c-3.84,0-7.19.98-10.06,2.93-2.87,1.95-5.05,4.67-6.54,8.15-1.5,3.48-2.25,7.41-2.25,11.77H9.66c0-8.66,2.08-16.62,6.25-23.88,4.17-7.26,10.06-13,17.68-17.24,7.62-4.23,16.34-6.35,26.17-6.35s18.65,1.61,25.68,4.83,12.34,7.9,15.92,14.01c3.58,6.12,5.37,13.48,5.37,22.07,0,6.32-1.27,12.39-3.81,18.21-2.54,5.83-6.1,11.64-10.69,17.43-4.59,5.8-10.63,12.57-18.12,20.31l-21.97,22.75h58.69v24.61H12.59Z" fill="#233166"/>
      <path d="M218.99,148.93c-4,8.98-9.64,15.66-16.89,20.02-7.26,4.36-15.81,6.54-25.63,6.54s-18.51-2.18-25.83-6.54c-7.32-4.36-13-11.04-17.04-20.02-4.04-8.98-6.05-20.21-6.05-33.69v-25.59c0-13.54,2.02-24.8,6.05-33.79,4.04-8.98,9.68-15.64,16.94-19.97,7.26-4.33,15.84-6.49,25.73-6.49s18.39,2.17,25.68,6.49c7.29,4.33,12.95,10.99,16.99,19.97,4.04,8.98,6.05,20.25,6.05,33.79v25.59c0,13.48-2,24.71-6.01,33.69ZM189.99,61.29c-3.09-4.85-7.67-7.28-13.72-7.28s-10.61,2.43-13.67,7.28c-3.06,4.85-4.59,12.91-4.59,24.17v33.69c0,11.39,1.55,19.53,4.64,24.41,3.09,4.88,7.7,7.32,13.82,7.32s10.51-2.44,13.57-7.32c3.06-4.88,4.59-13.02,4.59-24.41v-33.69c0-11.26-1.55-19.32-4.64-24.17Z" fill="#233166"/>
      <path d="M243.26,173.54v-20.8l45.9-48.34c6.31-6.97,10.84-12.92,13.57-17.87,2.73-4.95,4.1-9.41,4.1-13.38,0-6.18-1.46-10.94-4.39-14.26s-7.16-4.98-12.7-4.98c-3.84,0-7.19.98-10.06,2.93-2.87,1.95-5.05,4.67-6.54,8.15-1.5,3.48-2.25,7.41-2.25,11.77h-30.57c0-8.66,2.08-16.62,6.25-23.88,4.17-7.26,10.06-13,17.68-17.24,7.62-4.23,16.34-6.35,26.17-6.35s18.65,1.61,25.68,4.83,12.34,7.9,15.92,14.01c3.58,6.12,5.37,13.48,5.37,22.07,0,6.32-1.27,12.39-3.81,18.21-2.54,5.83-6.1,11.64-10.69,17.43-4.59,5.8-10.63,12.57-18.12,20.31l-21.97,22.75h58.69v24.61h-98.24Z" fill="#233166"/>
      <path d="M439.84,84.24c6.05,4.26,10.64,10.08,13.77,17.43,3.12,7.36,4.69,15.66,4.69,24.9s-2.05,17.5-6.15,24.95c-4.1,7.46-9.85,13.31-17.24,17.58-7.39,4.26-15.84,6.4-25.34,6.4-10.03,0-18.91-2.31-26.66-6.93-7.75-4.62-13.77-11.25-18.07-19.87-4.3-8.63-6.45-18.7-6.45-30.22v-11.72c0-15.62,3.12-29.26,9.38-40.92,6.25-11.65,14.92-20.62,26.03-26.9,11.1-6.28,23.81-9.42,38.13-9.42h4.59v25h-1.76c-12.57,0-22.82,3-30.76,8.98-7.94,5.99-12.79,14.62-14.55,25.88,3.52-3.58,7.68-6.4,12.5-8.45,4.82-2.05,10.12-3.08,15.92-3.08,8.59,0,15.92,2.13,21.97,6.4ZM418.7,147.76c2.9-2.08,5.14-4.98,6.74-8.69,1.59-3.71,2.39-7.88,2.39-12.5,0-4.88-.81-9.16-2.44-12.84-1.63-3.68-3.94-6.51-6.93-8.5-3-1.99-6.48-2.98-10.45-2.98-4.49,0-8.4,1.07-11.72,3.22s-5.8,4.92-7.42,8.3v9.18c0,9.25,1.74,16.21,5.22,20.9,3.48,4.69,8.38,7.03,14.7,7.03,3.71,0,7.01-1.04,9.91-3.12Z" fill="#233166"/>
    </g>
    <g>
      <path d="M1193.97,465.49v6.09h-27.98v-42.66h27.8v6.12h-20.21v11.57h17.43v5.98h-17.43v12.89h20.39Z"/>
      <path d="M1223.85,439.89l-10.96,31.7h-6.42l-11.02-31.7h7.56l6.71,22.47,6.56-22.47h7.56Z"/>
      <path d="M1255.02,458.02h-20.65c.14,1.62.56,3.06,1.26,4.31.7,1.25,1.66,2.23,2.86,2.93s2.6,1.05,4.2,1.05c3.28,0,5.92-1.29,7.91-3.87l3.9,3.78c-1.15,1.7-2.75,3.12-4.8,4.25s-4.53,1.7-7.44,1.7c-3.09,0-5.78-.67-8.09-2.01-2.3-1.34-4.07-3.17-5.3-5.49-1.23-2.32-1.85-4.93-1.85-7.82v-1.2c0-3.26.62-6.13,1.88-8.6,1.25-2.47,2.97-4.38,5.16-5.73s4.65-2.02,7.38-2.02c2.99,0,5.5.65,7.53,1.96,2.03,1.31,3.55,3.14,4.56,5.49,1.01,2.35,1.51,5.08,1.51,8.19v3.08ZM1247.81,452.19c-.1-2.05-.65-3.74-1.67-5.05s-2.6-1.98-4.75-1.98c-1.91,0-3.46.66-4.63,1.99-1.17,1.33-1.92,3.19-2.26,5.6h13.3v-.56Z"/>
      <path d="M1276.1,439.42c.52.08.9.17,1.16.26l-.06,6.88c-.98-.16-1.94-.23-2.9-.23-3.26,0-5.45,1.22-6.56,3.66v21.59h-7.29v-31.7h6.94l.21,3.57c.8-1.33,1.8-2.35,2.99-3.08,1.19-.72,2.57-1.08,4.13-1.08.41,0,.87.04,1.39.12Z"/>
      <path d="M1306.99,439.89l-12.63,36.5c-.8,2.19-1.95,4.07-3.44,5.64-1.49,1.57-3.63,2.36-6.4,2.36-.96,0-2.12-.18-3.49-.53v-5.6l1.35.06c1.74,0,3.06-.31,3.97-.92s1.63-1.69,2.15-3.24l1-2.7-11.13-31.58h7.88l6.59,21.27,6.39-21.27h7.76Z"/>
      <path d="M1325.83,465.84v5.62c-1.41.47-2.99.7-4.75.7-2.58,0-4.61-.71-6.09-2.14-1.48-1.43-2.23-3.7-2.23-6.83v-17.93h-5.16v-5.39h5.16v-7.73h7.29v7.73h5.57v5.39h-5.57v17.43c0,1.33.27,2.23.82,2.71.55.48,1.37.72,2.46.72.78,0,1.61-.1,2.49-.29Z"/>
      <path d="M1357.27,451.23v20.36h-7.29v-20.42c0-2.13-.45-3.65-1.36-4.56s-2.3-1.36-4.17-1.36c-1.41,0-2.64.32-3.71.97s-1.92,1.54-2.56,2.7v22.68h-7.29v-45h7.29v16.76c1.09-1.29,2.39-2.29,3.88-2.99s3.12-1.05,4.88-1.05c6.89,0,10.34,3.97,10.34,11.92Z"/>
      <path d="M1371.5,428.86c.74.73,1.11,1.67,1.11,2.8s-.37,2.03-1.11,2.75c-.74.72-1.75,1.08-3.02,1.08s-2.28-.36-3.02-1.07c-.74-.71-1.11-1.64-1.11-2.77s.37-2.07,1.11-2.8,1.75-1.1,3.02-1.1,2.28.37,3.02,1.1ZM1364.83,471.59v-31.7h7.29v31.7h-7.29Z"/>
      <path d="M1403.42,442.1c1.75,1.87,2.62,4.88,2.62,9.04v20.45h-7.29v-20.51c0-2.11-.45-3.61-1.36-4.5-.91-.89-2.3-1.33-4.17-1.33-1.37,0-2.59.33-3.66,1-1.07.66-1.93,1.59-2.58,2.78v22.56h-7.29v-31.7h6.86l.23,3.66c1.13-1.37,2.48-2.42,4.04-3.15s3.28-1.1,5.16-1.1c3.22,0,5.71.93,7.46,2.8Z"/>
      <path d="M1440.03,439.89v30.79c0,2.81-.61,5.22-1.82,7.24-1.21,2.01-2.91,3.54-5.1,4.58-2.19,1.04-4.72,1.57-7.59,1.57-1.29,0-2.68-.18-4.16-.54-1.48-.36-2.92-.93-4.29-1.71-1.38-.78-2.5-1.77-3.38-2.96l3.4-4.37c1.11,1.29,2.35,2.25,3.72,2.89,1.37.63,2.8.95,4.31.95,2.38,0,4.25-.65,5.6-1.95,1.35-1.3,2.02-3.15,2.02-5.55v-2.11c-2.05,2.3-4.77,3.46-8.14,3.46-2.54,0-4.77-.69-6.68-2.08-1.91-1.39-3.39-3.3-4.44-5.74-1.04-2.44-1.57-5.2-1.57-8.26v-.62c0-3.2.52-6.02,1.55-8.47,1.04-2.44,2.51-4.34,4.44-5.68s4.17-2.02,6.75-2.02c3.63,0,6.46,1.24,8.47,3.72l.29-3.13h6.62ZM1432.74,462.59v-13.8c-1.31-2.36-3.39-3.54-6.24-3.54-1.62,0-2.98.45-4.07,1.35-1.09.9-1.9,2.12-2.43,3.66-.53,1.54-.79,3.28-.79,5.21v.62c0,2.99.61,5.42,1.82,7.29s3.02,2.81,5.42,2.81c2.89,0,4.99-1.2,6.3-3.6Z"/>
      <path d="M1487.49,439.89l-12.63,36.5c-.8,2.19-1.95,4.07-3.44,5.64-1.49,1.57-3.63,2.36-6.4,2.36-.96,0-2.12-.18-3.49-.53v-5.6l1.35.06c1.74,0,3.06-.31,3.97-.92s1.63-1.69,2.15-3.24l1-2.7-11.13-31.58h7.88l6.59,21.27,6.39-21.27h7.76Z"/>
      <path d="M1491.93,447.15c1.18-2.44,2.89-4.36,5.11-5.76,2.23-1.4,4.84-2.09,7.85-2.09s5.69.7,7.92,2.09c2.24,1.4,3.95,3.32,5.13,5.76,1.18,2.44,1.77,5.21,1.77,8.29v.62c0,3.09-.59,5.85-1.77,8.29-1.18,2.44-2.89,4.36-5.11,5.74-2.23,1.39-4.85,2.08-7.88,2.08s-5.66-.69-7.9-2.08c-2.24-1.39-3.95-3.3-5.13-5.74-1.18-2.44-1.77-5.2-1.77-8.29v-.62c0-3.09.59-5.85,1.77-8.29ZM1499.33,463.44c1.25,1.91,3.12,2.87,5.62,2.87,1.66,0,3.05-.45,4.17-1.36s1.95-2.13,2.49-3.68c.54-1.54.81-3.28.81-5.21v-.62c0-1.91-.27-3.65-.81-5.2s-1.37-2.79-2.5-3.71c-1.13-.92-2.54-1.38-4.22-1.38s-3.05.46-4.16,1.38c-1.11.92-1.94,2.15-2.48,3.71s-.81,3.29-.81,5.2v.62c0,3.01.62,5.47,1.88,7.38Z"/>
      <path d="M1551.86,439.89v31.7h-6.88l-.18-3.13c-2.07,2.48-5.03,3.72-8.88,3.72-3.28,0-5.85-.96-7.71-2.87-1.86-1.91-2.78-4.89-2.78-8.94v-20.48h7.29v20.54c0,2.07.45,3.55,1.36,4.44.91.89,2.1,1.33,3.59,1.33,3.38,0,5.66-1.2,6.86-3.6v-22.71h7.32Z"/>
      <path d="M1597.57,442.1c1.75,1.87,2.62,4.88,2.62,9.04v20.45h-7.29v-20.51c0-2.11-.45-3.61-1.36-4.5-.91-.89-2.3-1.33-4.17-1.33-1.37,0-2.59.33-3.66,1-1.07.66-1.93,1.59-2.58,2.78v22.56h-7.29v-31.7h6.86l.23,3.66c1.13-1.37,2.48-2.42,4.04-3.15s3.28-1.1,5.16-1.1c3.22,0,5.71.93,7.46,2.8Z"/>
      <path d="M1634.12,458.02h-20.65c.14,1.62.56,3.06,1.26,4.31.7,1.25,1.66,2.23,2.86,2.93s2.6,1.05,4.2,1.05c3.28,0,5.92-1.29,7.91-3.87l3.9,3.78c-1.15,1.7-2.75,3.12-4.8,4.25s-4.53,1.7-7.44,1.7c-3.09,0-5.78-.67-8.09-2.01-2.3-1.34-4.07-3.17-5.3-5.49-1.23-2.32-1.85-4.93-1.85-7.82v-1.2c0-3.26.62-6.13,1.88-8.6,1.25-2.47,2.97-4.38,5.16-5.73s4.65-2.02,7.38-2.02c2.99,0,5.5.65,7.53,1.96,2.03,1.31,3.55,3.14,4.56,5.49,1.01,2.35,1.51,5.08,1.51,8.19v3.08ZM1626.92,452.19c-.1-2.05-.65-3.74-1.67-5.05s-2.6-1.98-4.75-1.98c-1.91,0-3.46.66-4.63,1.99-1.17,1.33-1.92,3.19-2.26,5.6h13.3v-.56Z"/>
      <path d="M1666.35,458.02h-20.65c.14,1.62.56,3.06,1.26,4.31.7,1.25,1.66,2.23,2.86,2.93s2.6,1.05,4.2,1.05c3.28,0,5.92-1.29,7.91-3.87l3.9,3.78c-1.15,1.7-2.75,3.12-4.8,4.25s-4.53,1.7-7.44,1.7c-3.09,0-5.78-.67-8.09-2.01-2.3-1.34-4.07-3.17-5.3-5.49-1.23-2.32-1.85-4.93-1.85-7.82v-1.2c0-3.26.62-6.13,1.88-8.6,1.25-2.47,2.97-4.38,5.16-5.73s4.65-2.02,7.38-2.02c2.99,0,5.5.65,7.53,1.96,2.03,1.31,3.55,3.14,4.56,5.49,1.01,2.35,1.51,5.08,1.51,8.19v3.08ZM1659.14,452.19c-.1-2.05-.65-3.74-1.67-5.05s-2.6-1.98-4.75-1.98c-1.91,0-3.46.66-4.63,1.99-1.17,1.33-1.92,3.19-2.26,5.6h13.3v-.56Z"/>
      <path d="M1698.31,426.59v45h-6.59l-.35-3.31c-2.11,2.6-4.93,3.9-8.47,3.9-2.5,0-4.69-.69-6.58-2.08-1.88-1.39-3.33-3.3-4.35-5.74-1.02-2.44-1.52-5.2-1.52-8.26v-.62c0-3.2.5-6.02,1.51-8.47,1.01-2.44,2.45-4.34,4.34-5.68s4.11-2.02,6.67-2.02c3.32,0,6.01,1.16,8.06,3.49v-16.2h7.29ZM1691.02,462.39v-13.42c-1.27-2.48-3.34-3.72-6.21-3.72-2.38,0-4.16.95-5.32,2.84-1.16,1.89-1.74,4.36-1.74,7.38v.62c0,3.01.57,5.44,1.71,7.31,1.14,1.87,2.91,2.8,5.29,2.8,2.89,0,4.98-1.27,6.27-3.81Z"/>
      <path d="M1735.46,465.84v5.62c-1.41.47-2.99.7-4.75.7-2.58,0-4.61-.71-6.09-2.14-1.48-1.43-2.23-3.7-2.23-6.83v-17.93h-5.16v-5.39h5.16v-7.73h7.29v7.73h5.57v5.39h-5.57v17.43c0,1.33.27,2.23.82,2.71.55.48,1.37.72,2.46.72.78,0,1.61-.1,2.49-.29Z"/>
      <path d="M1740.31,447.15c1.18-2.44,2.89-4.36,5.11-5.76,2.23-1.4,4.84-2.09,7.85-2.09s5.69.7,7.92,2.09c2.24,1.4,3.95,3.32,5.13,5.76,1.18,2.44,1.77,5.21,1.77,8.29v.62c0,3.09-.59,5.85-1.77,8.29-1.18,2.44-2.89,4.36-5.11,5.74-2.23,1.39-4.85,2.08-7.88,2.08s-5.66-.69-7.9-2.08c-2.24-1.39-3.95-3.3-5.13-5.74-1.18-2.44-1.77-5.2-1.77-8.29v-.62c0-3.09.59-5.85,1.77-8.29ZM1747.71,463.44c1.25,1.91,3.12,2.87,5.62,2.87,1.66,0,3.05-.45,4.17-1.36s1.95-2.13,2.49-3.68c.54-1.54.81-3.28.81-5.21v-.62c0-1.91-.27-3.65-.81-5.2s-1.37-2.79-2.5-3.71c-1.13-.92-2.54-1.38-4.22-1.38s-3.05.46-4.16,1.38c-1.11.92-1.94,2.15-2.48,3.71s-.81,3.29-.81,5.2v.62c0,3.01.62,5.47,1.88,7.38Z"/>
      <path d="M1175.8,530.05l-3.19,3.25v10.28h-7.27v-45h7.27v25.81l2.17-2.7,8.67-9.81h8.79l-11.75,13.18,12.98,18.52h-8.44l-9.23-13.54Z"/>
      <path d="M1220.38,514.1c1.75,1.87,2.62,4.88,2.62,9.04v20.45h-7.29v-20.51c0-2.11-.45-3.61-1.36-4.5-.91-.89-2.3-1.33-4.17-1.33-1.37,0-2.59.33-3.66,1-1.07.66-1.93,1.59-2.58,2.78v22.56h-7.29v-31.7h6.86l.23,3.66c1.13-1.37,2.48-2.42,4.04-3.15s3.28-1.1,5.16-1.1c3.22,0,5.71.93,7.46,2.8Z"/>
      <path d="M1230.57,519.15c1.18-2.44,2.89-4.36,5.11-5.76,2.23-1.4,4.84-2.09,7.85-2.09s5.69.7,7.92,2.09c2.24,1.4,3.95,3.32,5.13,5.76,1.18,2.44,1.77,5.21,1.77,8.29v.62c0,3.09-.59,5.85-1.77,8.29-1.18,2.44-2.89,4.36-5.11,5.74s-4.85,2.08-7.88,2.08-5.66-.69-7.9-2.08-3.95-3.3-5.13-5.74c-1.18-2.44-1.77-5.2-1.77-8.29v-.62c0-3.09.59-5.85,1.77-8.29ZM1237.97,535.44c1.25,1.91,3.12,2.87,5.62,2.87,1.66,0,3.05-.45,4.17-1.36s1.95-2.13,2.49-3.68c.54-1.54.81-3.28.81-5.21v-.62c0-1.91-.27-3.65-.81-5.2s-1.37-2.79-2.5-3.71c-1.13-.92-2.54-1.38-4.22-1.38s-3.05.46-4.16,1.38c-1.11.92-1.94,2.15-2.48,3.71s-.81,3.29-.81,5.2v.62c0,3.01.62,5.47,1.88,7.38Z"/>
      <path d="M1304.09,511.89l-8.58,31.7h-6.01l-6.71-21.5-6.59,21.5h-6.01l-8.58-31.7h7.09l5.01,21.42,6.42-21.42h5.45l6.47,21.68,4.95-21.68h7.09Z"/>
      <path d="M1346.03,513.34c1.87,1.36,3.27,3.25,4.2,5.67.94,2.42,1.41,5.23,1.41,8.44v.62c0,3.16-.47,5.96-1.42,8.38-.95,2.42-2.35,4.32-4.2,5.68s-4.09,2.05-6.71,2.05c-3.67,0-6.55-1.34-8.64-4.01l-.35,3.43h-6.59v-45h7.29v16.32c2.03-2.4,4.78-3.6,8.23-3.6,2.66,0,4.92.68,6.78,2.04ZM1344.35,527.44c0-3.07-.53-5.53-1.6-7.4-1.06-1.86-2.85-2.8-5.35-2.8-3.03,0-5.16,1.33-6.39,3.98v12.95c1.25,2.7,3.4,4.04,6.45,4.04,2.44,0,4.2-.91,5.27-2.74,1.07-1.83,1.61-4.3,1.61-7.43v-.62Z"/>
      <path d="M1384.31,530.02h-20.65c.14,1.62.56,3.06,1.26,4.31.7,1.25,1.66,2.23,2.86,2.93s2.6,1.05,4.2,1.05c3.28,0,5.92-1.29,7.91-3.87l3.9,3.78c-1.15,1.7-2.75,3.12-4.8,4.25-2.05,1.13-4.53,1.7-7.44,1.7-3.09,0-5.78-.67-8.09-2.01s-4.07-3.17-5.3-5.49c-1.23-2.32-1.85-4.93-1.85-7.82v-1.2c0-3.26.62-6.13,1.88-8.6,1.25-2.47,2.97-4.38,5.16-5.73s4.65-2.02,7.38-2.02c2.99,0,5.5.65,7.53,1.96,2.03,1.31,3.55,3.14,4.56,5.49,1.01,2.35,1.51,5.08,1.51,8.19v3.08ZM1377.1,524.19c-.1-2.05-.65-3.74-1.67-5.05s-2.6-1.98-4.75-1.98c-1.91,0-3.46.66-4.63,1.99-1.17,1.33-1.92,3.19-2.26,5.6h13.3v-.56Z"/>
      <path d="M1400.83,505.24c-.88.86-1.32,2.08-1.32,3.66v2.99h6.42v5.39h-6.42v26.31h-7.29v-26.31h-4.83v-5.39h4.83v-2.99c0-2.32.45-4.31,1.35-5.95s2.19-2.88,3.87-3.72c1.68-.84,3.67-1.26,5.98-1.26,1.29,0,2.64.18,4.04.53l-.18,5.71c-.76-.18-1.67-.26-2.72-.26-1.6,0-2.84.43-3.72,1.29Z"/>
      <path d="M1411.48,519.15c1.18-2.44,2.89-4.36,5.11-5.76,2.23-1.4,4.84-2.09,7.85-2.09s5.69.7,7.92,2.09c2.24,1.4,3.95,3.32,5.13,5.76,1.18,2.44,1.77,5.21,1.77,8.29v.62c0,3.09-.59,5.85-1.77,8.29-1.18,2.44-2.89,4.36-5.11,5.74s-4.85,2.08-7.88,2.08-5.66-.69-7.9-2.08-3.95-3.3-5.13-5.74c-1.18-2.44-1.77-5.2-1.77-8.29v-.62c0-3.09.59-5.85,1.77-8.29ZM1418.88,535.44c1.25,1.91,3.12,2.87,5.62,2.87,1.66,0,3.05-.45,4.17-1.36s1.95-2.13,2.49-3.68c.54-1.54.81-3.28.81-5.21v-.62c0-1.91-.27-3.65-.81-5.2s-1.37-2.79-2.5-3.71c-1.13-.92-2.54-1.38-4.22-1.38s-3.05.46-4.16,1.38c-1.11.92-1.94,2.15-2.48,3.71s-.81,3.29-.81,5.2v.62c0,3.01.62,5.47,1.88,7.38Z"/>
      <path d="M1460.82,511.42c.52.08.9.17,1.16.26l-.06,6.88c-.98-.16-1.94-.23-2.9-.23-3.26,0-5.45,1.22-6.56,3.66v21.59h-7.29v-31.7h6.94l.21,3.57c.8-1.33,1.8-2.35,2.99-3.08,1.19-.72,2.57-1.08,4.13-1.08.41,0,.87.04,1.39.12Z"/>
      <path d="M1493.17,530.02h-20.65c.14,1.62.56,3.06,1.26,4.31.7,1.25,1.66,2.23,2.86,2.93s2.6,1.05,4.2,1.05c3.28,0,5.92-1.29,7.91-3.87l3.9,3.78c-1.15,1.7-2.75,3.12-4.8,4.25-2.05,1.13-4.53,1.7-7.44,1.7-3.09,0-5.78-.67-8.09-2.01s-4.07-3.17-5.3-5.49c-1.23-2.32-1.85-4.93-1.85-7.82v-1.2c0-3.26.62-6.13,1.88-8.6,1.25-2.47,2.97-4.38,5.16-5.73s4.65-2.02,7.38-2.02c2.99,0,5.5.65,7.53,1.96,2.03,1.31,3.55,3.14,4.56,5.49,1.01,2.35,1.51,5.08,1.51,8.19v3.08ZM1485.97,524.19c-.1-2.05-.65-3.74-1.67-5.05s-2.6-1.98-4.75-1.98c-1.91,0-3.46.66-4.63,1.99-1.17,1.33-1.92,3.19-2.26,5.6h13.3v-.56Z"/>
      <path d="M1538.88,511.89l-12.63,36.5c-.8,2.19-1.95,4.07-3.44,5.64-1.49,1.57-3.63,2.36-6.4,2.36-.96,0-2.12-.18-3.49-.53v-5.6l1.35.06c1.74,0,3.06-.31,3.97-.92s1.63-1.7,2.15-3.24l1-2.7-11.13-31.58h7.88l6.59,21.27,6.39-21.27h7.76Z"/>
      <path d="M1543.32,519.15c1.18-2.44,2.89-4.36,5.11-5.76,2.23-1.4,4.84-2.09,7.85-2.09s5.69.7,7.92,2.09c2.24,1.4,3.95,3.32,5.13,5.76,1.18,2.44,1.77,5.21,1.77,8.29v.62c0,3.09-.59,5.85-1.77,8.29-1.18,2.44-2.89,4.36-5.11,5.74s-4.85,2.08-7.88,2.08-5.66-.69-7.9-2.08-3.95-3.3-5.13-5.74c-1.18-2.44-1.77-5.2-1.77-8.29v-.62c0-3.09.59-5.85,1.77-8.29ZM1550.71,535.44c1.25,1.91,3.12,2.87,5.62,2.87,1.66,0,3.05-.45,4.17-1.36s1.95-2.13,2.49-3.68c.54-1.54.81-3.28.81-5.21v-.62c0-1.91-.27-3.65-.81-5.2s-1.37-2.79-2.5-3.71c-1.13-.92-2.54-1.38-4.22-1.38s-3.05.46-4.16,1.38c-1.11.92-1.94,2.15-2.48,3.71s-.81,3.29-.81,5.2v.62c0,3.01.62,5.47,1.88,7.38Z"/>
      <path d="M1603.24,511.89v31.7h-6.88l-.18-3.13c-2.07,2.48-5.03,3.72-8.88,3.72-3.28,0-5.85-.96-7.71-2.87-1.86-1.91-2.78-4.89-2.78-8.94v-20.48h7.29v20.54c0,2.07.45,3.55,1.36,4.44.91.89,2.1,1.33,3.59,1.33,3.38,0,5.66-1.2,6.86-3.6v-22.71h7.32Z"/>
      <path d="M1650.73,511.89l-10.96,31.7h-6.42l-11.02-31.7h7.56l6.71,22.47,6.56-22.47h7.56Z"/>
      <path d="M1655.08,519.15c1.18-2.44,2.89-4.36,5.11-5.76,2.23-1.4,4.84-2.09,7.85-2.09s5.69.7,7.92,2.09c2.24,1.4,3.95,3.32,5.13,5.76,1.18,2.44,1.77,5.21,1.77,8.29v.62c0,3.09-.59,5.85-1.77,8.29-1.18,2.44-2.89,4.36-5.11,5.74s-4.85,2.08-7.88,2.08-5.66-.69-7.9-2.08-3.95-3.3-5.13-5.74c-1.18-2.44-1.77-5.2-1.77-8.29v-.62c0-3.09.59-5.85,1.77-8.29ZM1662.48,535.44c1.25,1.91,3.12,2.87,5.62,2.87,1.66,0,3.05-.45,4.17-1.36s1.95-2.13,2.49-3.68c.54-1.54.81-3.28.81-5.21v-.62c0-1.91-.27-3.65-.81-5.2s-1.37-2.79-2.5-3.71c-1.13-.92-2.54-1.38-4.22-1.38s-3.05.46-4.16,1.38c-1.11.92-1.94,2.15-2.48,3.71s-.81,3.29-.81,5.2v.62c0,3.01.62,5.47,1.88,7.38Z"/>
      <path d="M1703.5,537.84v5.63c-1.41.47-2.99.7-4.75.7-2.58,0-4.61-.71-6.09-2.14s-2.23-3.7-2.23-6.83v-17.93h-5.16v-5.39h5.16v-7.73h7.29v7.73h5.57v5.39h-5.57v17.43c0,1.33.27,2.23.82,2.71.55.48,1.37.72,2.46.72.78,0,1.61-.1,2.49-.29Z"/>
      <path d="M1735.46,530.02h-20.65c.14,1.62.56,3.06,1.26,4.31.7,1.25,1.66,2.23,2.86,2.93s2.6,1.05,4.2,1.05c3.28,0,5.92-1.29,7.91-3.87l3.9,3.78c-1.15,1.7-2.75,3.12-4.8,4.25-2.05,1.13-4.53,1.7-7.44,1.7-3.09,0-5.78-.67-8.09-2.01s-4.07-3.17-5.3-5.49c-1.23-2.32-1.85-4.93-1.85-7.82v-1.2c0-3.26.62-6.13,1.88-8.6,1.25-2.47,2.97-4.38,5.16-5.73s4.65-2.02,7.38-2.02c2.99,0,5.5.65,7.53,1.96,2.03,1.31,3.55,3.14,4.56,5.49,1.01,2.35,1.51,5.08,1.51,8.19v3.08ZM1728.25,524.19c-.1-2.05-.65-3.74-1.67-5.05s-2.6-1.98-4.75-1.98c-1.91,0-3.46.66-4.63,1.99-1.17,1.33-1.92,3.19-2.26,5.6h13.3v-.56Z"/>
    </g>
    <g>
      <rect x="1161.71" y="426.59" width="627.59" height="126.83" fill="none"/>
      <path d="M1193.97,465.49v6.09h-27.98v-42.66h27.8v6.12h-20.21v11.57h17.43v5.98h-17.43v12.89h20.39Z"/>
      <path d="M1223.85,439.89l-10.96,31.7h-6.42l-11.02-31.7h7.56l6.71,22.47,6.56-22.47h7.56Z"/>
      <path d="M1255.02,458.02h-20.65c.14,1.62.56,3.06,1.26,4.31.7,1.25,1.66,2.23,2.86,2.93s2.6,1.05,4.2,1.05c3.28,0,5.92-1.29,7.91-3.87l3.9,3.78c-1.15,1.7-2.75,3.12-4.8,4.25s-4.53,1.7-7.44,1.7c-3.09,0-5.78-.67-8.09-2.01-2.3-1.34-4.07-3.17-5.3-5.49-1.23-2.32-1.85-4.93-1.85-7.82v-1.2c0-3.26.62-6.13,1.88-8.6,1.25-2.47,2.97-4.38,5.16-5.73s4.65-2.02,7.38-2.02c2.99,0,5.5.65,7.53,1.96,2.03,1.31,3.55,3.14,4.56,5.49,1.01,2.35,1.51,5.08,1.51,8.19v3.08ZM1247.81,452.19c-.1-2.05-.65-3.74-1.67-5.05s-2.6-1.98-4.75-1.98c-1.91,0-3.46.66-4.63,1.99-1.17,1.33-1.92,3.19-2.26,5.6h13.3v-.56Z"/>
      <path d="M1276.1,439.42c.52.08.9.17,1.16.26l-.06,6.88c-.98-.16-1.94-.23-2.9-.23-3.26,0-5.45,1.22-6.56,3.66v21.59h-7.29v-31.7h6.94l.21,3.57c.8-1.33,1.8-2.35,2.99-3.08,1.19-.72,2.57-1.08,4.13-1.08.41,0,.87.04,1.39.12Z"/>
      <path d="M1306.99,439.89l-12.63,36.5c-.8,2.19-1.95,4.07-3.44,5.64-1.49,1.57-3.63,2.36-6.4,2.36-.96,0-2.12-.18-3.49-.53v-5.6l1.35.06c1.74,0,3.06-.31,3.97-.92s1.63-1.69,2.15-3.24l1-2.7-11.13-31.58h7.88l6.59,21.27,6.39-21.27h7.76Z"/>
      <path d="M1325.83,465.84v5.62c-1.41.47-2.99.7-4.75.7-2.58,0-4.61-.71-6.09-2.14-1.48-1.43-2.23-3.7-2.23-6.83v-17.93h-5.16v-5.39h5.16v-7.73h7.29v7.73h5.57v5.39h-5.57v17.43c0,1.33.27,2.23.82,2.71.55.48,1.37.72,2.46.72.78,0,1.61-.1,2.49-.29Z"/>
      <path d="M1357.27,451.23v20.36h-7.29v-20.42c0-2.13-.45-3.65-1.36-4.56s-2.3-1.36-4.17-1.36c-1.41,0-2.64.32-3.71.97s-1.92,1.54-2.56,2.7v22.68h-7.29v-45h7.29v16.76c1.09-1.29,2.39-2.29,3.88-2.99s3.12-1.05,4.88-1.05c6.89,0,10.34,3.97,10.34,11.92Z"/>
      <path d="M1371.5,428.86c.74.73,1.11,1.67,1.11,2.8s-.37,2.03-1.11,2.75c-.74.72-1.75,1.08-3.02,1.08s-2.28-.36-3.02-1.07c-.74-.71-1.11-1.64-1.11-2.77s.37-2.07,1.11-2.8,1.75-1.1,3.02-1.1,2.28.37,3.02,1.1ZM1364.83,471.59v-31.7h7.29v31.7h-7.29Z"/>
      <path d="M1403.42,442.1c1.75,1.87,2.62,4.88,2.62,9.04v20.45h-7.29v-20.51c0-2.11-.45-3.61-1.36-4.5-.91-.89-2.3-1.33-4.17-1.33-1.37,0-2.59.33-3.66,1-1.07.66-1.93,1.59-2.58,2.78v22.56h-7.29v-31.7h6.86l.23,3.66c1.13-1.37,2.48-2.42,4.04-3.15s3.28-1.1,5.16-1.1c3.22,0,5.71.93,7.46,2.8Z"/>
      <path d="M1440.03,439.89v30.79c0,2.81-.61,5.22-1.82,7.24-1.21,2.01-2.91,3.54-5.1,4.58-2.19,1.04-4.72,1.57-7.59,1.57-1.29,0-2.68-.18-4.16-.54-1.48-.36-2.92-.93-4.29-1.71-1.38-.78-2.5-1.77-3.38-2.96l3.4-4.37c1.11,1.29,2.35,2.25,3.72,2.89,1.37.63,2.8.95,4.31.95,2.38,0,4.25-.65,5.6-1.95,1.35-1.3,2.02-3.15,2.02-5.55v-2.11c-2.05,2.3-4.77,3.46-8.14,3.46-2.54,0-4.77-.69-6.68-2.08-1.91-1.39-3.39-3.3-4.44-5.74-1.04-2.44-1.57-5.2-1.57-8.26v-.62c0-3.2.52-6.02,1.55-8.47,1.04-2.44,2.51-4.34,4.44-5.68s4.17-2.02,6.75-2.02c3.63,0,6.46,1.24,8.47,3.72l.29-3.13h6.62ZM1432.74,462.59v-13.8c-1.31-2.36-3.39-3.54-6.24-3.54-1.62,0-2.98.45-4.07,1.35-1.09.9-1.9,2.12-2.43,3.66-.53,1.54-.79,3.28-.79,5.21v.62c0,2.99.61,5.42,1.82,7.29s3.02,2.81,5.42,2.81c2.89,0,4.99-1.2,6.3-3.6Z"/>
      <path d="M1487.49,439.89l-12.63,36.5c-.8,2.19-1.95,4.07-3.44,5.64-1.49,1.57-3.63,2.36-6.4,2.36-.96,0-2.12-.18-3.49-.53v-5.6l1.35.06c1.74,0,3.06-.31,3.97-.92s1.63-1.69,2.15-3.24l1-2.7-11.13-31.58h7.88l6.59,21.27,6.39-21.27h7.76Z"/>
      <path d="M1491.93,447.15c1.18-2.44,2.89-4.36,5.11-5.76,2.23-1.4,4.84-2.09,7.85-2.09s5.69.7,7.92,2.09c2.24,1.4,3.95,3.32,5.13,5.76,1.18,2.44,1.77,5.21,1.77,8.29v.62c0,3.09-.59,5.85-1.77,8.29-1.18,2.44-2.89,4.36-5.11,5.74-2.23,1.39-4.85,2.08-7.88,2.08s-5.66-.69-7.9-2.08c-2.24-1.39-3.95-3.3-5.13-5.74-1.18-2.44-1.77-5.2-1.77-8.29v-.62c0-3.09.59-5.85,1.77-8.29ZM1499.33,463.44c1.25,1.91,3.12,2.87,5.62,2.87,1.66,0,3.05-.45,4.17-1.36s1.95-2.13,2.49-3.68c.54-1.54.81-3.28.81-5.21v-.62c0-1.91-.27-3.65-.81-5.2s-1.37-2.79-2.5-3.71c-1.13-.92-2.54-1.38-4.22-1.38s-3.05.46-4.16,1.38c-1.11.92-1.94,2.15-2.48,3.71s-.81,3.29-.81,5.2v.62c0,3.01.62,5.47,1.88,7.38Z"/>
      <path d="M1551.86,439.89v31.7h-6.88l-.18-3.13c-2.07,2.48-5.03,3.72-8.88,3.72-3.28,0-5.85-.96-7.71-2.87-1.86-1.91-2.78-4.89-2.78-8.94v-20.48h7.29v20.54c0,2.07.45,3.55,1.36,4.44.91.89,2.1,1.33,3.59,1.33,3.38,0,5.66-1.2,6.86-3.6v-22.71h7.32Z"/>
      <path d="M1597.57,442.1c1.75,1.87,2.62,4.88,2.62,9.04v20.45h-7.29v-20.51c0-2.11-.45-3.61-1.36-4.5-.91-.89-2.3-1.33-4.17-1.33-1.37,0-2.59.33-3.66,1-1.07.66-1.93,1.59-2.58,2.78v22.56h-7.29v-31.7h6.86l.23,3.66c1.13-1.37,2.48-2.42,4.04-3.15s3.28-1.1,5.16-1.1c3.22,0,5.71.93,7.46,2.8Z"/>
      <path d="M1634.12,458.02h-20.65c.14,1.62.56,3.06,1.26,4.31.7,1.25,1.66,2.23,2.86,2.93s2.6,1.05,4.2,1.05c3.28,0,5.92-1.29,7.91-3.87l3.9,3.78c-1.15,1.7-2.75,3.12-4.8,4.25s-4.53,1.7-7.44,1.7c-3.09,0-5.78-.67-8.09-2.01-2.3-1.34-4.07-3.17-5.3-5.49-1.23-2.32-1.85-4.93-1.85-7.82v-1.2c0-3.26.62-6.13,1.88-8.6,1.25-2.47,2.97-4.38,5.16-5.73s4.65-2.02,7.38-2.02c2.99,0,5.5.65,7.53,1.96,2.03,1.31,3.55,3.14,4.56,5.49,1.01,2.35,1.51,5.08,1.51,8.19v3.08ZM1626.92,452.19c-.1-2.05-.65-3.74-1.67-5.05s-2.6-1.98-4.75-1.98c-1.91,0-3.46.66-4.63,1.99-1.17,1.33-1.92,3.19-2.26,5.6h13.3v-.56Z"/>
      <path d="M1666.35,458.02h-20.65c.14,1.62.56,3.06,1.26,4.31.7,1.25,1.66,2.23,2.86,2.93s2.6,1.05,4.2,1.05c3.28,0,5.92-1.29,7.91-3.87l3.9,3.78c-1.15,1.7-2.75,3.12-4.8,4.25s-4.53,1.7-7.44,1.7c-3.09,0-5.78-.67-8.09-2.01-2.3-1.34-4.07-3.17-5.3-5.49-1.23-2.32-1.85-4.93-1.85-7.82v-1.2c0-3.26.62-6.13,1.88-8.6,1.25-2.47,2.97-4.38,5.16-5.73s4.65-2.02,7.38-2.02c2.99,0,5.5.65,7.53,1.96,2.03,1.31,3.55,3.14,4.56,5.49,1.01,2.35,1.51,5.08,1.51,8.19v3.08ZM1659.14,452.19c-.1-2.05-.65-3.74-1.67-5.05s-2.6-1.98-4.75-1.98c-1.91,0-3.46.66-4.63,1.99-1.17,1.33-1.92,3.19-2.26,5.6h13.3v-.56Z"/>
      <path d="M1698.31,426.59v45h-6.59l-.35-3.31c-2.11,2.6-4.93,3.9-8.47,3.9-2.5,0-4.69-.69-6.58-2.08-1.88-1.39-3.33-3.3-4.35-5.74-1.02-2.44-1.52-5.2-1.52-8.26v-.62c0-3.2.5-6.02,1.51-8.47,1.01-2.44,2.45-4.34,4.34-5.68s4.11-2.02,6.67-2.02c3.32,0,6.01,1.16,8.06,3.49v-16.2h7.29ZM1691.02,462.39v-13.42c-1.27-2.48-3.34-3.72-6.21-3.72-2.38,0-4.16.95-5.32,2.84-1.16,1.89-1.74,4.36-1.74,7.38v.62c0,3.01.57,5.44,1.71,7.31,1.14,1.87,2.91,2.8,5.29,2.8,2.89,0,4.98-1.27,6.27-3.81Z"/>
      <path d="M1735.46,465.84v5.62c-1.41.47-2.99.7-4.75.7-2.58,0-4.61-.71-6.09-2.14-1.48-1.43-2.23-3.7-2.23-6.83v-17.93h-5.16v-5.39h5.16v-7.73h7.29v7.73h5.57v5.39h-5.57v17.43c0,1.33.27,2.23.82,2.71.55.48,1.37.72,2.46.72.78,0,1.61-.1,2.49-.29Z"/>
      <path d="M1740.31,447.15c1.18-2.44,2.89-4.36,5.11-5.76,2.23-1.4,4.84-2.09,7.85-2.09s5.69.7,7.92,2.09c2.24,1.4,3.95,3.32,5.13,5.76,1.18,2.44,1.77,5.21,1.77,8.29v.62c0,3.09-.59,5.85-1.77,8.29-1.18,2.44-2.89,4.36-5.11,5.74-2.23,1.39-4.85,2.08-7.88,2.08s-5.66-.69-7.9-2.08c-2.24-1.39-3.95-3.3-5.13-5.74-1.18-2.44-1.77-5.2-1.77-8.29v-.62c0-3.09.59-5.85,1.77-8.29ZM1747.71,463.44c1.25,1.91,3.12,2.87,5.62,2.87,1.66,0,3.05-.45,4.17-1.36s1.95-2.13,2.49-3.68c.54-1.54.81-3.28.81-5.21v-.62c0-1.91-.27-3.65-.81-5.2s-1.37-2.79-2.5-3.71c-1.13-.92-2.54-1.38-4.22-1.38s-3.05.46-4.16,1.38c-1.11.92-1.94,2.15-2.48,3.71s-.81,3.29-.81,5.2v.62c0,3.01.62,5.47,1.88,7.38Z"/>
      <path d="M1175.8,530.05l-3.19,3.25v10.28h-7.27v-45h7.27v25.81l2.17-2.7,8.67-9.81h8.79l-11.75,13.18,12.98,18.52h-8.44l-9.23-13.54Z"/>
      <path d="M1220.38,514.1c1.75,1.87,2.62,4.88,2.62,9.04v20.45h-7.29v-20.51c0-2.11-.45-3.61-1.36-4.5-.91-.89-2.3-1.33-4.17-1.33-1.37,0-2.59.33-3.66,1-1.07.66-1.93,1.59-2.58,2.78v22.56h-7.29v-31.7h6.86l.23,3.66c1.13-1.37,2.48-2.42,4.04-3.15s3.28-1.1,5.16-1.1c3.22,0,5.71.93,7.46,2.8Z"/>
      <path d="M1230.57,519.15c1.18-2.44,2.89-4.36,5.11-5.76,2.23-1.4,4.84-2.09,7.85-2.09s5.69.7,7.92,2.09c2.24,1.4,3.95,3.32,5.13,5.76,1.18,2.44,1.77,5.21,1.77,8.29v.62c0,3.09-.59,5.85-1.77,8.29-1.18,2.44-2.89,4.36-5.11,5.74s-4.85,2.08-7.88,2.08-5.66-.69-7.9-2.08-3.95-3.3-5.13-5.74c-1.18-2.44-1.77-5.2-1.77-8.29v-.62c0-3.09.59-5.85,1.77-8.29ZM1237.97,535.44c1.25,1.91,3.12,2.87,5.62,2.87,1.66,0,3.05-.45,4.17-1.36s1.95-2.13,2.49-3.68c.54-1.54.81-3.28.81-5.21v-.62c0-1.91-.27-3.65-.81-5.2s-1.37-2.79-2.5-3.71c-1.13-.92-2.54-1.38-4.22-1.38s-3.05.46-4.16,1.38c-1.11.92-1.94,2.15-2.48,3.71s-.81,3.29-.81,5.2v.62c0,3.01.62,5.47,1.88,7.38Z"/>
      <path d="M1304.09,511.89l-8.58,31.7h-6.01l-6.71-21.5-6.59,21.5h-6.01l-8.58-31.7h7.09l5.01,21.42,6.42-21.42h5.45l6.47,21.68,4.95-21.68h7.09Z"/>
      <path d="M1346.03,513.34c1.87,1.36,3.27,3.25,4.2,5.67.94,2.42,1.41,5.23,1.41,8.44v.62c0,3.16-.47,5.96-1.42,8.38-.95,2.42-2.35,4.32-4.2,5.68s-4.09,2.05-6.71,2.05c-3.67,0-6.55-1.34-8.64-4.01l-.35,3.43h-6.59v-45h7.29v16.32c2.03-2.4,4.78-3.6,8.23-3.6,2.66,0,4.92.68,6.78,2.04ZM1344.35,527.44c0-3.07-.53-5.53-1.6-7.4-1.06-1.86-2.85-2.8-5.35-2.8-3.03,0-5.16,1.33-6.39,3.98v12.95c1.25,2.7,3.4,4.04,6.45,4.04,2.44,0,4.2-.91,5.27-2.74,1.07-1.83,1.61-4.3,1.61-7.43v-.62Z"/>
      <path d="M1384.31,530.02h-20.65c.14,1.62.56,3.06,1.26,4.31.7,1.25,1.66,2.23,2.86,2.93s2.6,1.05,4.2,1.05c3.28,0,5.92-1.29,7.91-3.87l3.9,3.78c-1.15,1.7-2.75,3.12-4.8,4.25-2.05,1.13-4.53,1.7-7.44,1.7-3.09,0-5.78-.67-8.09-2.01s-4.07-3.17-5.3-5.49c-1.23-2.32-1.85-4.93-1.85-7.82v-1.2c0-3.26.62-6.13,1.88-8.6,1.25-2.47,2.97-4.38,5.16-5.73s4.65-2.02,7.38-2.02c2.99,0,5.5.65,7.53,1.96,2.03,1.31,3.55,3.14,4.56,5.49,1.01,2.35,1.51,5.08,1.51,8.19v3.08ZM1377.1,524.19c-.1-2.05-.65-3.74-1.67-5.05s-2.6-1.98-4.75-1.98c-1.91,0-3.46.66-4.63,1.99-1.17,1.33-1.92,3.19-2.26,5.6h13.3v-.56Z"/>
      <path d="M1400.83,505.24c-.88.86-1.32,2.08-1.32,3.66v2.99h6.42v5.39h-6.42v26.31h-7.29v-26.31h-4.83v-5.39h4.83v-2.99c0-2.32.45-4.31,1.35-5.95s2.19-2.88,3.87-3.72c1.68-.84,3.67-1.26,5.98-1.26,1.29,0,2.64.18,4.04.53l-.18,5.71c-.76-.18-1.67-.26-2.72-.26-1.6,0-2.84.43-3.72,1.29Z"/>
      <path d="M1411.48,519.15c1.18-2.44,2.89-4.36,5.11-5.76,2.23-1.4,4.84-2.09,7.85-2.09s5.69.7,7.92,2.09c2.24,1.4,3.95,3.32,5.13,5.76,1.18,2.44,1.77,5.21,1.77,8.29v.62c0,3.09-.59,5.85-1.77,8.29-1.18,2.44-2.89,4.36-5.11,5.74s-4.85,2.08-7.88,2.08-5.66-.69-7.9-2.08-3.95-3.3-5.13-5.74c-1.18-2.44-1.77-5.2-1.77-8.29v-.62c0-3.09.59-5.85,1.77-8.29ZM1418.88,535.44c1.25,1.91,3.12,2.87,5.62,2.87,1.66,0,3.05-.45,4.17-1.36s1.95-2.13,2.49-3.68c.54-1.54.81-3.28.81-5.21v-.62c0-1.91-.27-3.65-.81-5.2s-1.37-2.79-2.5-3.71c-1.13-.92-2.54-1.38-4.22-1.38s-3.05.46-4.16,1.38c-1.11.92-1.94,2.15-2.48,3.71s-.81,3.29-.81,5.2v.62c0,3.01.62,5.47,1.88,7.38Z"/>
      <path d="M1460.82,511.42c.52.08.9.17,1.16.26l-.06,6.88c-.98-.16-1.94-.23-2.9-.23-3.26,0-5.45,1.22-6.56,3.66v21.59h-7.29v-31.7h6.94l.21,3.57c.8-1.33,1.8-2.35,2.99-3.08,1.19-.72,2.57-1.08,4.13-1.08.41,0,.87.04,1.39.12Z"/>
      <path d="M1493.17,530.02h-20.65c.14,1.62.56,3.06,1.26,4.31.7,1.25,1.66,2.23,2.86,2.93s2.6,1.05,4.2,1.05c3.28,0,5.92-1.29,7.91-3.87l3.9,3.78c-1.15,1.7-2.75,3.12-4.8,4.25-2.05,1.13-4.53,1.7-7.44,1.7-3.09,0-5.78-.67-8.09-2.01s-4.07-3.17-5.3-5.49c-1.23-2.32-1.85-4.93-1.85-7.82v-1.2c0-3.26.62-6.13,1.88-8.6,1.25-2.47,2.97-4.38,5.16-5.73s4.65-2.02,7.38-2.02c2.99,0,5.5.65,7.53,1.96,2.03,1.31,3.55,3.14,4.56,5.49,1.01,2.35,1.51,5.08,1.51,8.19v3.08ZM1485.97,524.19c-.1-2.05-.65-3.74-1.67-5.05s-2.6-1.98-4.75-1.98c-1.91,0-3.46.66-4.63,1.99-1.17,1.33-1.92,3.19-2.26,5.6h13.3v-.56Z"/>
      <path d="M1538.88,511.89l-12.63,36.5c-.8,2.19-1.95,4.07-3.44,5.64-1.49,1.57-3.63,2.36-6.4,2.36-.96,0-2.12-.18-3.49-.53v-5.6l1.35.06c1.74,0,3.06-.31,3.97-.92s1.63-1.7,2.15-3.24l1-2.7-11.13-31.58h7.88l6.59,21.27,6.39-21.27h7.76Z"/>
      <path d="M1543.32,519.15c1.18-2.44,2.89-4.36,5.11-5.76,2.23-1.4,4.84-2.09,7.85-2.09s5.69.7,7.92,2.09c2.24,1.4,3.95,3.32,5.13,5.76,1.18,2.44,1.77,5.21,1.77,8.29v.62c0,3.09-.59,5.85-1.77,8.29-1.18,2.44-2.89,4.36-5.11,5.74s-4.85,2.08-7.88,2.08-5.66-.69-7.9-2.08-3.95-3.3-5.13-5.74c-1.18-2.44-1.77-5.2-1.77-8.29v-.62c0-3.09.59-5.85,1.77-8.29ZM1550.71,535.44c1.25,1.91,3.12,2.87,5.62,2.87,1.66,0,3.05-.45,4.17-1.36s1.95-2.13,2.49-3.68c.54-1.54.81-3.28.81-5.21v-.62c0-1.91-.27-3.65-.81-5.2s-1.37-2.79-2.5-3.71c-1.13-.92-2.54-1.38-4.22-1.38s-3.05.46-4.16,1.38c-1.11.92-1.94,2.15-2.48,3.71s-.81,3.29-.81,5.2v.62c0,3.01.62,5.47,1.88,7.38Z"/>
      <path d="M1603.24,511.89v31.7h-6.88l-.18-3.13c-2.07,2.48-5.03,3.72-8.88,3.72-3.28,0-5.85-.96-7.71-2.87-1.86-1.91-2.78-4.89-2.78-8.94v-20.48h7.29v20.54c0,2.07.45,3.55,1.36,4.44.91.89,2.1,1.33,3.59,1.33,3.38,0,5.66-1.2,6.86-3.6v-22.71h7.32Z"/>
      <path d="M1650.73,511.89l-10.96,31.7h-6.42l-11.02-31.7h7.56l6.71,22.47,6.56-22.47h7.56Z"/>
      <path d="M1655.08,519.15c1.18-2.44,2.89-4.36,5.11-5.76,2.23-1.4,4.84-2.09,7.85-2.09s5.69.7,7.92,2.09c2.24,1.4,3.95,3.32,5.13,5.76,1.18,2.44,1.77,5.21,1.77,8.29v.62c0,3.09-.59,5.85-1.77,8.29-1.18,2.44-2.89,4.36-5.11,5.74s-4.85,2.08-7.88,2.08-5.66-.69-7.9-2.08-3.95-3.3-5.13-5.74c-1.18-2.44-1.77-5.2-1.77-8.29v-.62c0-3.09.59-5.85,1.77-8.29ZM1662.48,535.44c1.25,1.91,3.12,2.87,5.62,2.87,1.66,0,3.05-.45,4.17-1.36s1.95-2.13,2.49-3.68c.54-1.54.81-3.28.81-5.21v-.62c0-1.91-.27-3.65-.81-5.2s-1.37-2.79-2.5-3.71c-1.13-.92-2.54-1.38-4.22-1.38s-3.05.46-4.16,1.38c-1.11.92-1.94,2.15-2.48,3.71s-.81,3.29-.81,5.2v.62c0,3.01.62,5.47,1.88,7.38Z"/>
      <path d="M1703.5,537.84v5.63c-1.41.47-2.99.7-4.75.7-2.58,0-4.61-.71-6.09-2.14s-2.23-3.7-2.23-6.83v-17.93h-5.16v-5.39h5.16v-7.73h7.29v7.73h5.57v5.39h-5.57v17.43c0,1.33.27,2.23.82,2.71.55.48,1.37.72,2.46.72.78,0,1.61-.1,2.49-.29Z"/>
      <path d="M1735.46,530.02h-20.65c.14,1.62.56,3.06,1.26,4.31.7,1.25,1.66,2.23,2.86,2.93s2.6,1.05,4.2,1.05c3.28,0,5.92-1.29,7.91-3.87l3.9,3.78c-1.15,1.7-2.75,3.12-4.8,4.25-2.05,1.13-4.53,1.7-7.44,1.7-3.09,0-5.78-.67-8.09-2.01s-4.07-3.17-5.3-5.49c-1.23-2.32-1.85-4.93-1.85-7.82v-1.2c0-3.26.62-6.13,1.88-8.6,1.25-2.47,2.97-4.38,5.16-5.73s4.65-2.02,7.38-2.02c2.99,0,5.5.65,7.53,1.96,2.03,1.31,3.55,3.14,4.56,5.49,1.01,2.35,1.51,5.08,1.51,8.19v3.08ZM1728.25,524.19c-.1-2.05-.65-3.74-1.67-5.05s-2.6-1.98-4.75-1.98c-1.91,0-3.46.66-4.63,1.99-1.17,1.33-1.92,3.19-2.26,5.6h13.3v-.56Z"/>
    </g>
  </g>
</svg>