<?xml version="1.0" encoding="UTF-8"?>
<svg id="Layer_1" data-name="Layer 1" xmlns="http://www.w3.org/2000/svg" viewBox="0 0 24 24">
  <path d="M17.91,2.17c1.05,0,2.03.41,2.77,1.15.74.74,1.15,1.73,1.15,2.77s-.41,2.03-1.15,2.77l-11.74,11.74c-.74.74-1.73,1.15-2.77,1.15s-2.03-.41-2.77-1.15c-1.53-1.53-1.53-4.02,0-5.55L15.14,3.32c.74-.74,1.73-1.15,2.77-1.15M17.91.17c-1.52,0-3.03.58-4.19,1.73L1.98,13.64c-2.31,2.31-2.31,6.06,0,8.37h0c1.16,1.16,2.67,1.73,4.19,1.73s3.03-.58,4.19-1.73l11.74-11.74c2.31-2.31,2.31-6.06,0-8.37h0c-1.16-1.16-2.67-1.73-4.19-1.73h0Z" style="fill: #233166;"/>
  <line x1="6.98" y1="6.98" x2="17" y2="17" style="fill: none; stroke: #fff; stroke-miterlimit: 10; stroke-width: 3px;"/>
  <line x1="6.98" y1="17.02" x2="17" y2="7" style="fill: none; stroke: #233166; stroke-miterlimit: 10; stroke-width: 3px;"/>
</svg>