<?xml version="1.0" encoding="UTF-8"?>
<svg id="svg16" xmlns="http://www.w3.org/2000/svg" viewBox="0 0 1200 1200">
  <g id="layer101">
    <path id="path2" d="M561.5,1194c-8.2-.5-18.4-1.3-22.5-1.9s-10.2-1.3-13.5-1.6c-8.8-.9-33-4.9-45.5-7.5-142.4-30-268.2-110.2-355-226.5C47.8,853,7,730.1,7,601s40.6-251.6,118.1-355.6c71.3-95.7,172-169.1,284.4-207.2,46.7-15.9,91.7-25.2,143.1-29.7,23.2-2,74.9-2,98.2,0,146.8,12.9,278.5,75.9,380.3,182,77.2,80.4,130.8,182.9,152.7,292,8.4,41.7,11.6,74.4,11.6,118,0,58.9-7.4,111.4-23.9,168-2.9,10-11.1,34.9-12.5,38-.5,1.1-3,7.4-5.6,14-2.5,6.6-6.2,15.3-8,19.3-1.9,4.1-3.4,7.6-3.4,7.9,0,.9-18,36.3-20.5,40.3-1.4,2.2-2.5,4.2-2.5,4.6,0,.7-8.7,15.1-17.1,28.4-36.6,57.7-87.9,113-143.6,154.8-13,9.8-44.6,31.1-52.6,35.6-2.6,1.4-5.8,3.2-7,4-9.2,6.1-57,29.7-70.2,34.7-2.7,1.1-5.9,2.4-7,2.9-3.3,1.6-17.9,7-18.8,7-.5,0-2.3.6-4,1.4-4.3,1.8-10.7,4-19.7,6.6-4.1,1.2-8.6,2.5-10,3-7.2,2.4-32.8,9.1-42,10.9-17,3.4-22.4,4.4-30.5,5.7-11.7,1.8-31.4,4.3-44,5.5-14.3,1.3-73.2,1.9-91,.9Z" style="fill: #0044c9;"/>
  </g>
  <g id="layer102">
    <path id="path5" d="M569,1135.4c-74.2-5.1-141.9-23.3-206.1-55.3-136-67.9-236.8-189.9-277.4-336.1-21.2-76-25-158.5-11-237.7,16.3-92.6,58.4-181.2,120.5-253.8,14-16.3,45.6-47.7,61.5-60.8,54-45,110.7-76.8,175-98.2,60.8-20.2,115.6-28.5,181-27.2,38,.8,64.8,3.7,98.7,10.7,105.8,22.1,206.3,78.4,278.9,156.2,82.3,88.3,129.4,190.3,143.6,311.3,1.4,11.9,1.8,23.3,1.8,55.5,0,41.3-.5,49.8-4.6,78-19.8,137.1-91.5,260-202.4,346.5-13.7,10.8-47.1,33-63,42.1-40.6,23-88.2,42.1-133.5,53.4-44.6,11.1-76,15-124,15.5-18.4.1-36,.1-39-.1ZM837.1,936.1c10.6-3.4,14-7.4,33.1-39.1l7.5-12.5,1.2-32c.7-17.6,1.7-35.6,2.2-40,1-8.1,1.4-9.1,6.5-18,2.8-4.8,2.9-5.5,2.8-16.5-.1-10.7-.6-13.3-6.7-37.5-10.1-40-12.1-52-11.5-67.9.3-10,1.9-13.6,6-13.6,3.7,0,28.9,26.4,33.3,35.1.9,1.6,2,6.3,2.5,10.5.7,5.5,2,9.6,4.7,14.8,2,3.9,5.3,11.2,7.3,16.1,4.5,11.1,6.4,11.8,9.7,3.5,6.7-17,4.1-42.1-4.9-46.8-6-3.1-18.6-17.1-27.8-30.8-10.3-15.5-15.4-25.6-18.4-36.6l-2.2-7.9h-203.5c-111.8.1-213.9.4-226.8.8l-23.3.6.6,5.4c.4,3,5.8,25.8,12.1,50.7,7,28,11.8,48.9,12.5,55.1.6,5.5,1.4,25.5,1.7,44.5.5,32.9.4,34.8-1.5,40.5-3.2,9.3-4.9,16.9-7.2,31-1.1,7.2-2.5,14.5-3.1,16.4-.7,1.9-6.5,11.5-13.1,21.4-12.9,19.7-20.8,34.3-20.8,38.7,0,1.6,1.1,4.1,2.3,5.6,2.3,2.7,2.6,2.7,18.8,3.6,22.6,1.2,50-.1,53.4-2.6,1-.7,2.1-4.4,3.1-10.6.8-5.1,1.8-9.8,2.1-10.3,1-1.7,8.1,0,12.5,3.1,7.3,5,7.9,4.9,14.6-1.3,14.4-13.3,37.2-40.8,37.2-44.9,0-2.5-4.1-6.7-11.3-11.6-7.4-4.9-11.6-8.9-13.7-12.9-1-2-4.4-11.9-7.6-22.1l-5.8-18.5.1-15c0-16.9,2.1-29.1,7.4-44.2,5.9-16.7,17.4-38.9,22.7-43.7,2-1.8,6.3-2.3,53.7-7.1,8.8-.9,24.1-2.9,34-4.6,21.6-3.7,37.2-4.3,42.2-1.6,1.8.9,4.5,3.6,6.1,6,4.1,5.9,20.5,38.9,25.9,52.1,6.3,15.3,6.5,19.2,1.8,33.1-2,6.1-4.1,13.6-4.6,16.9-1.7,10.2-7,18.8-37.1,60.1-27.3,37.5-29.8,41.6-29.8,48.6,0,9.8,18.1,16,40.9,13.8,15.7-1.5,15.3-1.1,29.9-25.7,10.6-17.7,17.3-27,27.3-37.9,10.7-11.7,10.3-10.7,10.7-33.6l.4-19.8,22.5-22.2c12.4-12.2,23.6-24.1,25-26.5,3.7-6.3,3-14.1-3-30.4-6.9-18.9-7.4-21-5.4-24.2,1.2-1.8,2.6-2.6,4.6-2.6,5.1,0,10,7.1,23.5,33.9l12.4,24.6,1,36.9.9,36.9-4.3,13.1c-4.6,14.2-5.9,20.8-7,36l-.7,9.9-15.6,16.1c-8.6,8.9-16.5,17.8-17.4,19.9-2.9,6.1-.1,11.5,8.4,16.2,7.5,4.1,9.8,4.4,24.9,4.1,10.5-.2,15-.8,20.1-2.5ZM890.3,590c5.9-30.2,8.2-50.6,8.2-72l-.1-18.5-3.7-9.9c-9-24.3-29.7-52.5-43.5-59.5-8.8-4.4-39.3-17.1-46.1-19.2-18.6-5.6-41.3-.3-139.6,32.7l-40.9,13.7-32.6-.6c-35.8-.7-42-1.5-51.8-6.7-5.7-3-10.6-7-41.9-34.1-35.4-30.7-47-37.5-83.5-49.3-12.8-4.2-24.8-8.5-26.6-9.6-5.7-3.5-6.5-7.1-6.6-27.5l-.1-18-5.7-16.5c-9.3-27.2-14.4-37-19.4-37-2.7,0-7.4,6.5-15.7,22-8.2,15.3-8.9,17.7-9.7,35.5-.8,16.9-1.9,21.3-6,23.5-6.5,3.5-17-11.8-31.3-45.5-9.8-23.1-12.5-25.9-19.8-19.8-6.2,5.3-10.2,17.8-11.9,37.8-1.4,15.2-.3,26,3.4,33.9,1.2,2.8,6.6,10.8,11.9,17.8,5.2,7,9.9,13.7,10.2,14.9,1,3,0,6-7,21-7.6,16.3-9,22.6-10.5,46.7-1.4,21.9-2.3,26.7-7,37.2-7,15.8-11.7,34.6-12.7,51.1-.8,12.8-.1,15.9,4.7,20.8,10,10.2,35.4,17.2,50.3,13.7,13.7-3.2,27.6-11.1,41.9-24,10.4-9.2,16.5-13.6,19.2-13.6,1.2,0,4.4,1.1,7.2,2.5,13.7,6.8,32.3,29.6,43.6,53.2l5.8,12.3,232.3.2c127.7.2,232.5.1,232.8-.2s1.3-4.3,2.2-9Z" style="fill: #fff;"/>
    <path id="path7" d="M802,575.3c0-.4,2.3-7.6,5.1-16,3.6-10.9,4.8-15.7,4.1-16.6-.6-.7-6.7-5.3-13.5-10.2l-12.5-9,16.8-.3,16.8-.2,5.5-16.3,5.4-16.2,5.3,16.2,5.2,16.3,16.9.2,17,.3-11.2,8c-6.2,4.4-12.3,8.9-13.6,10l-2.4,2,5,15.5c2.8,8.5,4.9,15.5,4.7,15.7-.1.2-6.3-4-13.6-9.3l-13.3-9.6-6.1,4.3c-3.3,2.3-9.6,6.9-13.8,10.1-4.3,3.1-7.8,5.4-7.8,5.1Z" style="fill: #fff;"/>
    <path id="path9" d="M454.2,573.8c5.3-14.2,9.8-30.1,9-31.1-.6-.7-6.7-5.3-13.5-10.2l-12.5-9,16.9-.3,16.8-.2,5.1-15.8c2.8-8.6,5.3-15.8,5.5-16s2.7,6.8,5.5,15.7l5.1,16.1,17,.2,17,.3-13.1,9.4c-7.1,5.1-13.2,9.7-13.5,10.1-.2.4,1.8,7.7,4.5,16.1s4.7,15.5,4.6,15.7c-.2.2-6.3-4-13.5-9.2-7.2-5.3-13.3-9.6-13.5-9.6-.3,0-6.4,4.3-13.6,9.5s-13.3,9.5-13.6,9.5c-.4,0-.4-.6-.2-1.2Z" style="fill: #fff;"/>
    <path id="path11" d="M571.2,573.9c.3-.8,2.4-7.4,4.7-14.6,2.3-7.3,4.4-13.9,4.7-14.7.4-.9-3.9-4.6-13-11.3l-13.6-9.8,16.8-.3,16.9-.2,5.3-16.3,5.3-16.2,5.4,16.2,5.5,16.3,16.8.2,16.8.3-13.4,9.5c-12.1,8.5-13.4,9.8-12.9,12,.2,1.4,2.4,8.7,4.9,16.3,2.4,7.5,4.2,13.7,3.9,13.7s-6-4-12.7-8.8c-6.6-4.9-12.6-9.2-13.3-9.6s-6.3,3-13.5,8.2c-14.8,10.7-15.3,11-14.6,9.1Z" style="fill: #fff;"/>
    <path id="path13" d="M688.2,573.8c5.3-14.2,9.8-30.1,9-31.1-.6-.7-6.7-5.3-13.5-10.2l-12.5-9,16.9-.3,16.8-.2,5.1-15.8c2.8-8.6,5.3-15.8,5.5-16s2.7,6.8,5.5,15.7l5.1,16.1,17,.2,17,.3-13.1,9.4c-7.1,5.1-13.2,9.7-13.5,10.1-.2.4,1.8,7.7,4.5,16.1s4.7,15.5,4.6,15.7c-.2.2-6.3-4-13.5-9.2-7.2-5.3-13.3-9.6-13.5-9.6-.3,0-6.4,4.3-13.6,9.5s-13.3,9.5-13.6,9.5c-.4,0-.4-.6-.2-1.2Z" style="fill: #fff;"/>
  </g>
  <path id="path10182" d="M559.11,1193.17c-80.43-7.14-146.48-24.77-214.52-57.27-166.03-79.3-287.7-235.08-324.48-415.46-9.1-44.64-10.78-62.98-10.86-118.77-.08-55.8,1.62-74.57,10.85-120.17C52.35,322.13,149.45,183.99,291.95,94.72c10.62-6.65,32.08-18.42,47.69-26.15C426.71,25.44,520.24,5.13,618.36,8.05c89.25,2.65,168.22,22.51,247.84,62.31,36.19,18.09,58.89,31.99,88.8,54.39,63.61,47.63,114.84,104.21,155.26,171.49,44.22,73.61,70.33,151.3,81.58,242.84,3.14,25.56,2.69,98.52-.78,127.68-19.04,159.59-96.67,299.24-222.21,399.77-6.43,5.15-25.14,18.37-41.59,29.38-74.99,50.2-163.77,83-254.65,94.07-19.85,2.42-97.55,4.6-113.49,3.18h0ZM682.19,1131.01c150.38-23.52,282.14-108.13,366.65-235.43,44.21-66.59,72.82-143.94,84.66-228.82,3.51-25.16,3.01-112.56-.79-136.86-19.37-124.07-67.02-220.68-150.96-306.06-81.65-83.05-187.61-136.27-306.65-154.03-28.85-4.3-118.02-4.3-146.87,0-120.55,17.98-221.7,68.71-306.9,153.91s-136.17,190.33-152.28,313.89c-3.99,30.61-3.99,95.38,0,126.65,11.05,86.48,39.07,162.68,85.3,232.01,89.49,134.19,226.13,217.88,388.06,237.7,6.88.84,36.18,1.3,65.09,1.02,43.11-.42,56.55-1.13,74.68-3.97h0Z" style="fill: #0044c9;"/>
  <path id="path10221" d="M417.88,586.23c-17.11-33.99-44.13-60.87-55.21-54.92-1.65.89-9.39,6.93-17.19,13.42s-19.07,14.26-25.03,17.27c-9.86,4.96-12.22,5.46-25.91,5.46s-15.97-.46-26.69-5.84c-16.69-8.38-18.58-12.22-16.07-32.66,1.8-14.64,5.08-26.74,13.35-49.29,2.2-5.98,4.33-18.79,5.93-35.53,2.36-24.74,2.92-27.16,10.09-43.84,4.17-9.71,7.59-18.8,7.59-20.19s-4.47-8.78-9.93-16.42c-5.46-7.64-11.13-16.19-12.58-19.01-3.7-7.16-4.87-23.61-2.72-38.41,2.66-18.35,4.94-25.02,10.44-30.52,4.65-4.65,5.09-4.77,8.02-2.11,1.71,1.54,6.65,10.83,10.98,20.64,14.04,31.78,23.06,45.37,30.09,45.37,5.68,0,7.05-3.81,8.83-24.59,1.48-17.24,2.09-19.42,9.28-33.23,9.66-18.56,13.13-23.11,16.56-21.79,3.37,1.29,9.26,12.93,16.21,32.05,4.76,13.1,5.6,17.88,6.54,37.35,1.32,27.51.53,26.6,32.7,37.57,39.74,13.55,48.93,19.23,95.6,59.1,14.07,12.02,29.02,23.52,33.22,25.56,8.05,3.9,32.22,6.2,67.13,6.4,15.67.09,16.16-.04,68.43-17.38,91.28-30.29,110.38-34.37,129.86-27.75,21.81,7.4,46.29,19.24,53.47,25.85,9.78,9,25.26,32.57,31.98,48.67l5.53,13.26-1.03,24.2c-.95,22.25-3.39,42.21-7.92,64.67l-1.77,8.76h-463.7l-6.09-12.1ZM820.01,563.98l9.71-7.05,12.57,9.02c6.92,4.96,13.21,9.02,13.98,9.02,1.38,0-1.03-9.48-5.94-23.41-1.37-3.88-2.49-7.26-2.49-7.51s6.11-4.85,13.57-10.22l13.57-9.76-15.66-1.28c-8.61-.7-16.43-1.55-17.37-1.89-.94-.34-3.9-7.47-6.58-15.85-2.68-8.38-5.38-14.66-6.01-13.97-.63.7-3.19,7.52-5.7,15.16s-5.42,14.2-6.47,14.58-8.88,1.26-17.4,1.97l-15.49,1.28,13.34,9.63c7.33,5.3,13.03,10.56,12.66,11.68-2.66,8.1-9.21,29.94-9.21,30.7,0,1.12,5.76-2.56,18.89-12.1h0ZM469.05,565.95l12.45-9.01,8.34,6.03c4.59,3.31,10.4,7.5,12.91,9.31,2.51,1.81,5.02,2.83,5.57,2.29.55-.55-.94-7.36-3.32-15.14s-4.31-14.61-4.31-15.17,6.14-5.53,13.65-11.02l13.65-10h-6.55c-3.6-.02-11.6-.5-17.76-1.08l-11.21-1.06-4.69-14.08c-2.58-7.74-5.41-14.08-6.28-14.08s-3.71,6.36-6.3,14.14l-4.71,14.14-17.02,1.42-17.02,1.42,12.17,8.84c6.69,4.86,12.54,9.8,12.99,10.98s-1.08,8.09-3.4,15.36c-2.32,7.27-4.23,13.78-4.24,14.47-.04,2.56,2.92,1.03,15.07-7.76h0ZM585.25,566.44c14.31-9.66,13.15-9.74,29.37,2.06,5.29,3.85,10.03,6.57,10.54,6.07s-1.06-7.43-3.48-15.38c-5.1-16.73-5.56-15.58,10.66-27.2l11.06-7.93-17.03-1.42-17.03-1.42-5.22-15.68c-2.87-8.63-5.48-15.68-5.78-15.68s-2.91,7.06-5.78,15.68l-5.22,15.68-16.91,1.42-16.91,1.42,12.82,9.64c7.05,5.3,12.82,10.18,12.82,10.85s-1.87,7.22-4.15,14.56c-4.38,14.11-4.74,15.86-3.29,15.86.5,0,6.6-3.84,13.54-8.53h0ZM703.6,565.63c6.46-4.61,11.81-7.3,13.35-6.71,1.41.54,7.44,4.46,13.4,8.71,5.96,4.25,11.29,7.27,11.85,6.7s-.94-7.54-3.34-15.5-3.99-15.09-3.53-15.83c.46-.74,6.48-5.3,13.38-10.11s11.94-8.91,11.19-9.09c-.75-.18-8.56-.82-17.36-1.42l-16-1.09-4.76-14.89c-2.62-8.19-5.27-14.89-5.89-14.89-1.17,0-7.19,15.63-9.2,23.92-1.42,5.82-1.34,5.79-20.69,7.35l-15.8,1.28,12.85,9.18c7.07,5.05,12.87,10.36,12.88,11.81s-1.85,8.15-4.15,14.9-4.17,12.97-4.17,13.82c0,2.4,4.24.25,15.98-8.13h0Z" style="fill: #0044c9;"/>
  <path id="path10260" d="M793.38,933.93c-6.71-4.09-10.48-9.51-9.43-13.54.46-1.74,8.26-11.01,17.34-20.59,14.12-14.9,16.51-18.23,16.52-23.01.02-9.77,3.3-26.86,7.72-40.32,4.27-12.97,4.28-13.25,3.09-50.07l-1.2-37.03-12.43-24.62c-13.85-27.43-19.27-35.06-24.36-34.3-7.21,1.08-7.33,5.15-.74,25.15,8.91,27.07,8.99,26.65-8.38,45.21-8.03,8.58-19.24,19.87-24.9,25.08l-10.3,9.48-.55,20.65c-.62,23.11.96,19.41-18.91,44.25-4.59,5.74-13.23,18.35-19.21,28.03-5.98,9.68-12.74,19-15.04,20.72-9.01,6.73-39.51,5.39-49.1-2.16-5.21-4.1-5.54-10.2-.95-17.72,1.82-2.98,12.59-18.38,23.95-34.21,33.29-46.44,35.73-50.53,40.56-68.12,6.62-24.08,6.96-26.91,4.49-36.58-2.37-9.25-24.99-56.52-30.21-63.14-3.63-4.6-13.67-7.27-22.91-6.11-3.67.46-20.57,2.64-37.55,4.84-16.98,2.2-40.12,4.94-51.42,6.07-15.07,1.52-21.59,2.89-24.44,5.13-5.05,3.97-17.83,28.79-23.46,45.55-3.13,9.32-4.87,19.21-5.99,33.99l-1.58,20.84,7,21.88c7.41,23.14,8.25,24.43,24.85,37.95l7.44,6.06-3,5.7c-3.53,6.7-30.05,37.16-36.5,41.92-4.44,3.28-4.46,3.28-10.21-.27-8.32-5.14-14.21-4.75-15.52,1.03-3.76,16.68-3.72,16.62-10.3,17.71-8.26,1.37-51.93,1.36-58.76,0-3.23-.65-6.03-2.54-7.04-4.76-2.07-4.54.43-9.73,19.22-40,12.5-20.14,13.64-22.74,16.42-37.55,1.64-8.75,4.6-22.41,6.57-30.36,3.45-13.9,3.52-15.95,1.83-54.24l-1.76-39.8-9.41-38.39c-5.17-21.11-10.79-44.58-12.48-52.16l-3.07-13.77h453.26l1.02,5.42c2.91,15.5,21.89,45.55,40.32,63.86,9.15,9.09,12.51,13.67,13.36,18.17,1.5,7.98.12,27.3-2.39,33.42-1.7,4.15-2.33,4.52-4.18,2.5-3.24-3.53-16.04-33.92-16.04-38.09,0-1.99-1.08-6.19-2.4-9.34-3.13-7.49-30.51-35.88-34.6-35.88s-6.4,6.31-6.4,18.28,3.25,29.5,11.1,60.99c3.2,12.85,6.24,29.4,6.75,36.77.84,12.16.52,14.2-3.43,22-5.09,10.05-5.86,15.85-7.56,57.22l-1.27,30.88-11.87,19.19c-18.7,30.23-23.45,33.38-50.3,33.37-12.83,0-17.07-.64-21.25-3.19h0Z" style="fill: #0044c9;"/>
</svg>