<?xml version="1.0" encoding="UTF-8"?>
<svg id="Layer_1" data-name="Layer 1" xmlns="http://www.w3.org/2000/svg" viewBox="0 0 227 227">
  <circle cx="113.75" cy="113.68" r="112.5" style="fill: #e81b23;"/>
  <circle cx="113.75" cy="113.68" r="101.25" style="fill: #fff;"/>
  <path id="trunk" d="M109.33,44.48c-.58,0-1.17,0-1.76,0-32.3.2-60.3,7.47-60.29,43.07,0,9.22.32,9.96,5.7,9.94,5.33-.02,110.44-.13,110.52-.13,4.11.05,5.21-.95,5.19-7.98-.1-36.22-22.71-44.87-59.36-44.91h0ZM165.08,101.11c-4.12.08-106.31.1-112.99.06-3.33-.02-4.5.89-4.5,3.74,0,5.9-.45,51.43-.19,58.84.1,2.91,1.71,3.77,3.86,3.8,4.81.06,16.78.22,21.22.13,3.04-.06,4.35-1.52,4.5-5.89.14-4.1-.07-10.89.06-16.97.04-2.05.76-3.55,2.85-3.61,5.3-.16,25.66-.16,29.7-.06,5.13.13,5.95.06,6.08,5.38.15,6.32.13,10.2-.06,15.07-.2,5.21,1.52,5.7,4.31,5.76,4.12.09,13.62-.13,18.37-.06,6.32.09,6.2-1.83,6.27-10.07.03-3.55,0-15.9-.13-21.53-.03-1.4.7-2.39,1.65-2.41,3.87-.06,4.68,10.07,5.64,15.14,3.55,18.78,11.76,21.17,19.25,21.22,9.39.06,18.33-7.72,18.37-23.75,0-2.41-.51-4.5-2.28-4.5-7.92,0-3.29.12-7.47,0-2.22-.06-4.18.25-3.74,3.67.44,3.42.64,9.79-3.67,9.94-1.84.06-3.29-1.27-3.29-5s-.26-41.8-.38-44.84c-.06-1.65-.13-4.12-3.42-4.05h0Z" style="fill: #e81b23; fill-rule: evenodd;"/>
  <path d="M98.95,59.37l3.52,10.98-9.32,6.87,11.53.04,3.65,10.99,3.6-10.95,11.58-.08-9.3-6.81,3.5-11.03-9.35,6.74-9.41-6.74h0ZM134.23,59.5l3.52,10.98-9.32,6.87,11.53.04,3.65,10.99,3.6-10.95,11.58-.08-9.3-6.81,3.5-11.03-9.35,6.74-9.41-6.74h0ZM63.61,59.51l3.52,10.98-9.32,6.87,11.53.04,3.65,10.99,3.6-10.95,11.58-.08-9.3-6.81,3.5-11.03-9.35,6.74-9.41-6.74h0Z" style="fill: #fff; fill-rule: evenodd;"/>
</svg>