<?xml version="1.0" encoding="UTF-8"?>
<svg id="Layer_1" data-name="Layer 1" xmlns="http://www.w3.org/2000/svg" viewBox="0 0 602.19 515.87">
  <path d="M589.43,113c-7.04-25.95-26.83-46.19-53.23-53.23-46.63-12.76-235.33-12.76-235.33-12.76,0,0-188.27,0-234.89,12.76-25.95,7.04-46.19,27.27-53.67,53.23C0,159.62,0,257.71,0,257.71c0,0,0,98.09,12.32,145.16,7.48,25.51,27.71,46.19,53.67,53.22,46.63,12.76,234.89,12.76,234.89,12.76,0,0,188.71,0,235.33-12.76,26.39-7.04,46.19-27.71,53.23-53.22,12.75-47.07,12.75-145.16,12.75-145.16,0,0,0-98.09-12.75-144.72ZM241.05,348.33v-180.79l156.16,90.17-156.16,90.61Z" style="fill: #212121;"/>
</svg>